<mxfile host="app.diagrams.net" modified="2024-05-31T14:34:28.624Z" agent="Mozilla/5.0 (Windows NT 10.0; Win64; x64) AppleWebKit/537.36 (KHTML, like Gecko) Chrome/125.0.0.0 Safari/537.36" etag="5C932IDP7fD9oJJTYL5x" version="24.4.13" type="device">
  <diagram name="第 1 页" id="TUtstMB186Du6AtriZ5Q">
    <mxGraphModel dx="5142" dy="2154" grid="1" gridSize="10" guides="1" tooltips="1" connect="1" arrows="1" fold="1" page="1" pageScale="1" pageWidth="1169" pageHeight="827" math="0" shadow="0">
      <root>
        <mxCell id="0" />
        <mxCell id="1" parent="0" />
        <mxCell id="VxrySX8bHII_4migYD42-1" value="" style="shape=table;startSize=0;container=1;collapsible=0;childLayout=tableLayout;fontSize=16;direction=south;flipH=1;flipV=1;fillColor=#FFFFFF;fontColor=#ffffff;strokeColor=#000000;" parent="1" vertex="1">
          <mxGeometry x="-1198" y="199" width="198" height="280" as="geometry" />
        </mxCell>
        <mxCell id="VxrySX8bHII_4migYD42-2" style="shape=tableRow;horizontal=0;startSize=0;swimlaneHead=0;swimlaneBody=0;strokeColor=#000000;top=0;left=0;bottom=0;right=0;collapsible=0;dropTarget=0;fillColor=none;points=[[0,0.5],[1,0.5]];portConstraint=eastwest;fontSize=16;" parent="VxrySX8bHII_4migYD42-1" vertex="1">
          <mxGeometry width="198" height="40" as="geometry" />
        </mxCell>
        <mxCell id="VxrySX8bHII_4migYD42-3" style="shape=partialRectangle;html=1;whiteSpace=wrap;connectable=0;strokeColor=#000000;overflow=hidden;fillColor=none;top=0;left=0;bottom=0;right=0;pointerEvents=1;fontSize=16;" parent="VxrySX8bHII_4migYD42-2" vertex="1">
          <mxGeometry width="39" height="40" as="geometry">
            <mxRectangle width="39" height="40" as="alternateBounds" />
          </mxGeometry>
        </mxCell>
        <mxCell id="VxrySX8bHII_4migYD42-4" style="shape=partialRectangle;html=1;whiteSpace=wrap;connectable=0;strokeColor=#000000;overflow=hidden;fillColor=none;top=0;left=0;bottom=0;right=0;pointerEvents=1;fontSize=16;" parent="VxrySX8bHII_4migYD42-2" vertex="1">
          <mxGeometry x="39" width="42" height="40" as="geometry">
            <mxRectangle width="42" height="40" as="alternateBounds" />
          </mxGeometry>
        </mxCell>
        <mxCell id="VxrySX8bHII_4migYD42-5" style="shape=partialRectangle;html=1;whiteSpace=wrap;connectable=0;strokeColor=#000000;overflow=hidden;fillColor=none;top=0;left=0;bottom=0;right=0;pointerEvents=1;fontSize=16;" parent="VxrySX8bHII_4migYD42-2" vertex="1">
          <mxGeometry x="81" width="41" height="40" as="geometry">
            <mxRectangle width="41" height="40" as="alternateBounds" />
          </mxGeometry>
        </mxCell>
        <mxCell id="VxrySX8bHII_4migYD42-6" style="shape=partialRectangle;html=1;whiteSpace=wrap;connectable=0;strokeColor=#000000;overflow=hidden;fillColor=none;top=0;left=0;bottom=0;right=0;pointerEvents=1;fontSize=16;" parent="VxrySX8bHII_4migYD42-2" vertex="1">
          <mxGeometry x="122" width="38" height="40" as="geometry">
            <mxRectangle width="38" height="40" as="alternateBounds" />
          </mxGeometry>
        </mxCell>
        <mxCell id="lRJhLhai7MYSxHj7oOno-1" style="shape=partialRectangle;html=1;whiteSpace=wrap;connectable=0;strokeColor=#000000;overflow=hidden;fillColor=none;top=0;left=0;bottom=0;right=0;pointerEvents=1;fontSize=16;" vertex="1" parent="VxrySX8bHII_4migYD42-2">
          <mxGeometry x="160" width="38" height="40" as="geometry">
            <mxRectangle width="38" height="40" as="alternateBounds" />
          </mxGeometry>
        </mxCell>
        <mxCell id="VxrySX8bHII_4migYD42-7" style="shape=tableRow;horizontal=0;startSize=0;swimlaneHead=0;swimlaneBody=0;strokeColor=#000000;top=0;left=0;bottom=0;right=0;collapsible=0;dropTarget=0;fillColor=none;points=[[0,0.5],[1,0.5]];portConstraint=eastwest;fontSize=16;" parent="VxrySX8bHII_4migYD42-1" vertex="1">
          <mxGeometry y="40" width="198" height="40" as="geometry" />
        </mxCell>
        <mxCell id="VxrySX8bHII_4migYD42-8" style="shape=partialRectangle;html=1;whiteSpace=wrap;connectable=0;strokeColor=#000000;overflow=hidden;fillColor=none;top=0;left=0;bottom=0;right=0;pointerEvents=1;fontSize=16;" parent="VxrySX8bHII_4migYD42-7" vertex="1">
          <mxGeometry width="39" height="40" as="geometry">
            <mxRectangle width="39" height="40" as="alternateBounds" />
          </mxGeometry>
        </mxCell>
        <mxCell id="VxrySX8bHII_4migYD42-9" style="shape=partialRectangle;html=1;whiteSpace=wrap;connectable=0;strokeColor=#000000;overflow=hidden;fillColor=none;top=0;left=0;bottom=0;right=0;pointerEvents=1;fontSize=16;" parent="VxrySX8bHII_4migYD42-7" vertex="1">
          <mxGeometry x="39" width="42" height="40" as="geometry">
            <mxRectangle width="42" height="40" as="alternateBounds" />
          </mxGeometry>
        </mxCell>
        <mxCell id="VxrySX8bHII_4migYD42-10" style="shape=partialRectangle;html=1;whiteSpace=wrap;connectable=0;strokeColor=#000000;overflow=hidden;fillColor=none;top=0;left=0;bottom=0;right=0;pointerEvents=1;fontSize=16;" parent="VxrySX8bHII_4migYD42-7" vertex="1">
          <mxGeometry x="81" width="41" height="40" as="geometry">
            <mxRectangle width="41" height="40" as="alternateBounds" />
          </mxGeometry>
        </mxCell>
        <mxCell id="VxrySX8bHII_4migYD42-11" style="shape=partialRectangle;html=1;whiteSpace=wrap;connectable=0;strokeColor=#000000;overflow=hidden;fillColor=none;top=0;left=0;bottom=0;right=0;pointerEvents=1;fontSize=16;" parent="VxrySX8bHII_4migYD42-7" vertex="1">
          <mxGeometry x="122" width="38" height="40" as="geometry">
            <mxRectangle width="38" height="40" as="alternateBounds" />
          </mxGeometry>
        </mxCell>
        <mxCell id="lRJhLhai7MYSxHj7oOno-2" style="shape=partialRectangle;html=1;whiteSpace=wrap;connectable=0;strokeColor=#000000;overflow=hidden;fillColor=none;top=0;left=0;bottom=0;right=0;pointerEvents=1;fontSize=16;" vertex="1" parent="VxrySX8bHII_4migYD42-7">
          <mxGeometry x="160" width="38" height="40" as="geometry">
            <mxRectangle width="38" height="40" as="alternateBounds" />
          </mxGeometry>
        </mxCell>
        <mxCell id="VxrySX8bHII_4migYD42-12" style="shape=tableRow;horizontal=0;startSize=0;swimlaneHead=0;swimlaneBody=0;strokeColor=#000000;top=0;left=0;bottom=0;right=0;collapsible=0;dropTarget=0;fillColor=none;points=[[0,0.5],[1,0.5]];portConstraint=eastwest;fontSize=16;" parent="VxrySX8bHII_4migYD42-1" vertex="1">
          <mxGeometry y="80" width="198" height="41" as="geometry" />
        </mxCell>
        <mxCell id="VxrySX8bHII_4migYD42-13" style="shape=partialRectangle;html=1;whiteSpace=wrap;connectable=0;strokeColor=#000000;overflow=hidden;fillColor=none;top=0;left=0;bottom=0;right=0;pointerEvents=1;fontSize=16;" parent="VxrySX8bHII_4migYD42-12" vertex="1">
          <mxGeometry width="39" height="41" as="geometry">
            <mxRectangle width="39" height="41" as="alternateBounds" />
          </mxGeometry>
        </mxCell>
        <mxCell id="VxrySX8bHII_4migYD42-14" style="shape=partialRectangle;html=1;whiteSpace=wrap;connectable=0;strokeColor=#000000;overflow=hidden;fillColor=none;top=0;left=0;bottom=0;right=0;pointerEvents=1;fontSize=16;" parent="VxrySX8bHII_4migYD42-12" vertex="1">
          <mxGeometry x="39" width="42" height="41" as="geometry">
            <mxRectangle width="42" height="41" as="alternateBounds" />
          </mxGeometry>
        </mxCell>
        <mxCell id="VxrySX8bHII_4migYD42-15" style="shape=partialRectangle;html=1;whiteSpace=wrap;connectable=0;strokeColor=#000000;overflow=hidden;fillColor=none;top=0;left=0;bottom=0;right=0;pointerEvents=1;fontSize=16;" parent="VxrySX8bHII_4migYD42-12" vertex="1">
          <mxGeometry x="81" width="41" height="41" as="geometry">
            <mxRectangle width="41" height="41" as="alternateBounds" />
          </mxGeometry>
        </mxCell>
        <mxCell id="VxrySX8bHII_4migYD42-16" style="shape=partialRectangle;html=1;whiteSpace=wrap;connectable=0;strokeColor=#000000;overflow=hidden;fillColor=none;top=0;left=0;bottom=0;right=0;pointerEvents=1;fontSize=16;" parent="VxrySX8bHII_4migYD42-12" vertex="1">
          <mxGeometry x="122" width="38" height="41" as="geometry">
            <mxRectangle width="38" height="41" as="alternateBounds" />
          </mxGeometry>
        </mxCell>
        <mxCell id="lRJhLhai7MYSxHj7oOno-3" style="shape=partialRectangle;html=1;whiteSpace=wrap;connectable=0;strokeColor=#000000;overflow=hidden;fillColor=none;top=0;left=0;bottom=0;right=0;pointerEvents=1;fontSize=16;" vertex="1" parent="VxrySX8bHII_4migYD42-12">
          <mxGeometry x="160" width="38" height="41" as="geometry">
            <mxRectangle width="38" height="41" as="alternateBounds" />
          </mxGeometry>
        </mxCell>
        <mxCell id="VxrySX8bHII_4migYD42-17" value="" style="shape=tableRow;horizontal=0;startSize=0;swimlaneHead=0;swimlaneBody=0;strokeColor=#000000;top=0;left=0;bottom=0;right=0;collapsible=0;dropTarget=0;fillColor=none;points=[[0,0.5],[1,0.5]];portConstraint=eastwest;fontSize=16;" parent="VxrySX8bHII_4migYD42-1" vertex="1">
          <mxGeometry y="121" width="198" height="39" as="geometry" />
        </mxCell>
        <mxCell id="VxrySX8bHII_4migYD42-18" value="" style="shape=partialRectangle;html=1;whiteSpace=wrap;connectable=0;strokeColor=#000000;overflow=hidden;fillColor=none;top=0;left=0;bottom=0;right=0;pointerEvents=1;fontSize=16;" parent="VxrySX8bHII_4migYD42-17" vertex="1">
          <mxGeometry width="39" height="39" as="geometry">
            <mxRectangle width="39" height="39" as="alternateBounds" />
          </mxGeometry>
        </mxCell>
        <mxCell id="VxrySX8bHII_4migYD42-19" value="" style="shape=partialRectangle;html=1;whiteSpace=wrap;connectable=0;strokeColor=#000000;overflow=hidden;fillColor=none;top=0;left=0;bottom=0;right=0;pointerEvents=1;fontSize=16;" parent="VxrySX8bHII_4migYD42-17" vertex="1">
          <mxGeometry x="39" width="42" height="39" as="geometry">
            <mxRectangle width="42" height="39" as="alternateBounds" />
          </mxGeometry>
        </mxCell>
        <mxCell id="VxrySX8bHII_4migYD42-20" value="" style="shape=partialRectangle;html=1;whiteSpace=wrap;connectable=0;strokeColor=#000000;overflow=hidden;fillColor=none;top=0;left=0;bottom=0;right=0;pointerEvents=1;fontSize=16;" parent="VxrySX8bHII_4migYD42-17" vertex="1">
          <mxGeometry x="81" width="41" height="39" as="geometry">
            <mxRectangle width="41" height="39" as="alternateBounds" />
          </mxGeometry>
        </mxCell>
        <mxCell id="VxrySX8bHII_4migYD42-21" style="shape=partialRectangle;html=1;whiteSpace=wrap;connectable=0;strokeColor=#000000;overflow=hidden;fillColor=none;top=0;left=0;bottom=0;right=0;pointerEvents=1;fontSize=16;" parent="VxrySX8bHII_4migYD42-17" vertex="1">
          <mxGeometry x="122" width="38" height="39" as="geometry">
            <mxRectangle width="38" height="39" as="alternateBounds" />
          </mxGeometry>
        </mxCell>
        <mxCell id="lRJhLhai7MYSxHj7oOno-4" style="shape=partialRectangle;html=1;whiteSpace=wrap;connectable=0;strokeColor=#000000;overflow=hidden;fillColor=none;top=0;left=0;bottom=0;right=0;pointerEvents=1;fontSize=16;" vertex="1" parent="VxrySX8bHII_4migYD42-17">
          <mxGeometry x="160" width="38" height="39" as="geometry">
            <mxRectangle width="38" height="39" as="alternateBounds" />
          </mxGeometry>
        </mxCell>
        <mxCell id="VxrySX8bHII_4migYD42-22" value="" style="shape=tableRow;horizontal=0;startSize=0;swimlaneHead=0;swimlaneBody=0;strokeColor=#000000;top=0;left=0;bottom=0;right=0;collapsible=0;dropTarget=0;fillColor=none;points=[[0,0.5],[1,0.5]];portConstraint=eastwest;fontSize=16;" parent="VxrySX8bHII_4migYD42-1" vertex="1">
          <mxGeometry y="160" width="198" height="40" as="geometry" />
        </mxCell>
        <mxCell id="VxrySX8bHII_4migYD42-23" value="" style="shape=partialRectangle;html=1;whiteSpace=wrap;connectable=0;strokeColor=#000000;overflow=hidden;fillColor=none;top=0;left=0;bottom=0;right=0;pointerEvents=1;fontSize=16;" parent="VxrySX8bHII_4migYD42-22" vertex="1">
          <mxGeometry width="39" height="40" as="geometry">
            <mxRectangle width="39" height="40" as="alternateBounds" />
          </mxGeometry>
        </mxCell>
        <mxCell id="VxrySX8bHII_4migYD42-24" value="" style="shape=partialRectangle;html=1;whiteSpace=wrap;connectable=0;strokeColor=#000000;overflow=hidden;fillColor=none;top=0;left=0;bottom=0;right=0;pointerEvents=1;fontSize=16;" parent="VxrySX8bHII_4migYD42-22" vertex="1">
          <mxGeometry x="39" width="42" height="40" as="geometry">
            <mxRectangle width="42" height="40" as="alternateBounds" />
          </mxGeometry>
        </mxCell>
        <mxCell id="VxrySX8bHII_4migYD42-25" value="" style="shape=partialRectangle;html=1;whiteSpace=wrap;connectable=0;strokeColor=#000000;overflow=hidden;fillColor=none;top=0;left=0;bottom=0;right=0;pointerEvents=1;fontSize=16;" parent="VxrySX8bHII_4migYD42-22" vertex="1">
          <mxGeometry x="81" width="41" height="40" as="geometry">
            <mxRectangle width="41" height="40" as="alternateBounds" />
          </mxGeometry>
        </mxCell>
        <mxCell id="VxrySX8bHII_4migYD42-26" style="shape=partialRectangle;html=1;whiteSpace=wrap;connectable=0;strokeColor=#000000;overflow=hidden;fillColor=none;top=0;left=0;bottom=0;right=0;pointerEvents=1;fontSize=16;" parent="VxrySX8bHII_4migYD42-22" vertex="1">
          <mxGeometry x="122" width="38" height="40" as="geometry">
            <mxRectangle width="38" height="40" as="alternateBounds" />
          </mxGeometry>
        </mxCell>
        <mxCell id="lRJhLhai7MYSxHj7oOno-5" style="shape=partialRectangle;html=1;whiteSpace=wrap;connectable=0;strokeColor=#000000;overflow=hidden;fillColor=none;top=0;left=0;bottom=0;right=0;pointerEvents=1;fontSize=16;" vertex="1" parent="VxrySX8bHII_4migYD42-22">
          <mxGeometry x="160" width="38" height="40" as="geometry">
            <mxRectangle width="38" height="40" as="alternateBounds" />
          </mxGeometry>
        </mxCell>
        <mxCell id="VxrySX8bHII_4migYD42-27" value="" style="shape=tableRow;horizontal=0;startSize=0;swimlaneHead=0;swimlaneBody=0;strokeColor=#000000;top=0;left=0;bottom=0;right=0;collapsible=0;dropTarget=0;fillColor=none;points=[[0,0.5],[1,0.5]];portConstraint=eastwest;fontSize=16;" parent="VxrySX8bHII_4migYD42-1" vertex="1">
          <mxGeometry y="200" width="198" height="40" as="geometry" />
        </mxCell>
        <mxCell id="VxrySX8bHII_4migYD42-28" value="" style="shape=partialRectangle;html=1;whiteSpace=wrap;connectable=0;strokeColor=#000000;overflow=hidden;fillColor=none;top=0;left=0;bottom=0;right=0;pointerEvents=1;fontSize=16;" parent="VxrySX8bHII_4migYD42-27" vertex="1">
          <mxGeometry width="39" height="40" as="geometry">
            <mxRectangle width="39" height="40" as="alternateBounds" />
          </mxGeometry>
        </mxCell>
        <mxCell id="VxrySX8bHII_4migYD42-29" value="" style="shape=partialRectangle;html=1;whiteSpace=wrap;connectable=0;strokeColor=#000000;overflow=hidden;fillColor=none;top=0;left=0;bottom=0;right=0;pointerEvents=1;fontSize=16;" parent="VxrySX8bHII_4migYD42-27" vertex="1">
          <mxGeometry x="39" width="42" height="40" as="geometry">
            <mxRectangle width="42" height="40" as="alternateBounds" />
          </mxGeometry>
        </mxCell>
        <mxCell id="VxrySX8bHII_4migYD42-30" value="" style="shape=partialRectangle;html=1;whiteSpace=wrap;connectable=0;strokeColor=#000000;overflow=hidden;fillColor=none;top=0;left=0;bottom=0;right=0;pointerEvents=1;fontSize=16;" parent="VxrySX8bHII_4migYD42-27" vertex="1">
          <mxGeometry x="81" width="41" height="40" as="geometry">
            <mxRectangle width="41" height="40" as="alternateBounds" />
          </mxGeometry>
        </mxCell>
        <mxCell id="VxrySX8bHII_4migYD42-31" style="shape=partialRectangle;html=1;whiteSpace=wrap;connectable=0;strokeColor=#000000;overflow=hidden;fillColor=none;top=0;left=0;bottom=0;right=0;pointerEvents=1;fontSize=16;" parent="VxrySX8bHII_4migYD42-27" vertex="1">
          <mxGeometry x="122" width="38" height="40" as="geometry">
            <mxRectangle width="38" height="40" as="alternateBounds" />
          </mxGeometry>
        </mxCell>
        <mxCell id="lRJhLhai7MYSxHj7oOno-6" style="shape=partialRectangle;html=1;whiteSpace=wrap;connectable=0;strokeColor=#000000;overflow=hidden;fillColor=none;top=0;left=0;bottom=0;right=0;pointerEvents=1;fontSize=16;" vertex="1" parent="VxrySX8bHII_4migYD42-27">
          <mxGeometry x="160" width="38" height="40" as="geometry">
            <mxRectangle width="38" height="40" as="alternateBounds" />
          </mxGeometry>
        </mxCell>
        <mxCell id="lRJhLhai7MYSxHj7oOno-7" style="shape=tableRow;horizontal=0;startSize=0;swimlaneHead=0;swimlaneBody=0;strokeColor=#000000;top=0;left=0;bottom=0;right=0;collapsible=0;dropTarget=0;fillColor=none;points=[[0,0.5],[1,0.5]];portConstraint=eastwest;fontSize=16;" vertex="1" parent="VxrySX8bHII_4migYD42-1">
          <mxGeometry y="240" width="198" height="40" as="geometry" />
        </mxCell>
        <mxCell id="lRJhLhai7MYSxHj7oOno-8" style="shape=partialRectangle;html=1;whiteSpace=wrap;connectable=0;strokeColor=#000000;overflow=hidden;fillColor=none;top=0;left=0;bottom=0;right=0;pointerEvents=1;fontSize=16;" vertex="1" parent="lRJhLhai7MYSxHj7oOno-7">
          <mxGeometry width="39" height="40" as="geometry">
            <mxRectangle width="39" height="40" as="alternateBounds" />
          </mxGeometry>
        </mxCell>
        <mxCell id="lRJhLhai7MYSxHj7oOno-9" style="shape=partialRectangle;html=1;whiteSpace=wrap;connectable=0;strokeColor=#000000;overflow=hidden;fillColor=none;top=0;left=0;bottom=0;right=0;pointerEvents=1;fontSize=16;" vertex="1" parent="lRJhLhai7MYSxHj7oOno-7">
          <mxGeometry x="39" width="42" height="40" as="geometry">
            <mxRectangle width="42" height="40" as="alternateBounds" />
          </mxGeometry>
        </mxCell>
        <mxCell id="lRJhLhai7MYSxHj7oOno-10" style="shape=partialRectangle;html=1;whiteSpace=wrap;connectable=0;strokeColor=#000000;overflow=hidden;fillColor=none;top=0;left=0;bottom=0;right=0;pointerEvents=1;fontSize=16;" vertex="1" parent="lRJhLhai7MYSxHj7oOno-7">
          <mxGeometry x="81" width="41" height="40" as="geometry">
            <mxRectangle width="41" height="40" as="alternateBounds" />
          </mxGeometry>
        </mxCell>
        <mxCell id="lRJhLhai7MYSxHj7oOno-11" style="shape=partialRectangle;html=1;whiteSpace=wrap;connectable=0;strokeColor=#000000;overflow=hidden;fillColor=none;top=0;left=0;bottom=0;right=0;pointerEvents=1;fontSize=16;" vertex="1" parent="lRJhLhai7MYSxHj7oOno-7">
          <mxGeometry x="122" width="38" height="40" as="geometry">
            <mxRectangle width="38" height="40" as="alternateBounds" />
          </mxGeometry>
        </mxCell>
        <mxCell id="lRJhLhai7MYSxHj7oOno-12" style="shape=partialRectangle;html=1;whiteSpace=wrap;connectable=0;strokeColor=#000000;overflow=hidden;fillColor=none;top=0;left=0;bottom=0;right=0;pointerEvents=1;fontSize=16;" vertex="1" parent="lRJhLhai7MYSxHj7oOno-7">
          <mxGeometry x="160" width="38" height="40" as="geometry">
            <mxRectangle width="38" height="40" as="alternateBounds" />
          </mxGeometry>
        </mxCell>
        <mxCell id="VxrySX8bHII_4migYD42-49" value="" style="shape=table;startSize=0;container=1;collapsible=0;childLayout=tableLayout;fontSize=16;direction=south;flipH=1;flipV=1;fillColor=#FF3399;fontColor=#ffffff;strokeColor=#000000;strokeWidth=1;" parent="1" vertex="1">
          <mxGeometry x="-520" y="-39" width="39" height="40" as="geometry" />
        </mxCell>
        <mxCell id="VxrySX8bHII_4migYD42-50" style="shape=tableRow;horizontal=0;startSize=0;swimlaneHead=0;swimlaneBody=0;strokeColor=#000000;top=0;left=0;bottom=0;right=0;collapsible=0;dropTarget=0;fillColor=none;points=[[0,0.5],[1,0.5]];portConstraint=eastwest;fontSize=16;" parent="VxrySX8bHII_4migYD42-49" vertex="1">
          <mxGeometry width="39" height="40" as="geometry" />
        </mxCell>
        <mxCell id="VxrySX8bHII_4migYD42-51" style="shape=partialRectangle;html=1;whiteSpace=wrap;connectable=0;strokeColor=#000000;overflow=hidden;fillColor=none;top=0;left=0;bottom=0;right=0;pointerEvents=1;fontSize=16;" parent="VxrySX8bHII_4migYD42-50" vertex="1">
          <mxGeometry width="39" height="40" as="geometry">
            <mxRectangle width="39" height="40" as="alternateBounds" />
          </mxGeometry>
        </mxCell>
        <mxCell id="VxrySX8bHII_4migYD42-56" value="" style="shape=table;startSize=0;container=1;collapsible=0;childLayout=tableLayout;fontSize=16;direction=south;flipH=1;flipV=1;fillColor=#33FF33;fontColor=#ffffff;strokeColor=#000000;strokeWidth=1;" parent="1" vertex="1">
          <mxGeometry x="-640" y="496" width="39" height="244" as="geometry" />
        </mxCell>
        <mxCell id="VxrySX8bHII_4migYD42-57" style="shape=tableRow;horizontal=0;startSize=0;swimlaneHead=0;swimlaneBody=0;strokeColor=#000000;top=0;left=0;bottom=0;right=0;collapsible=0;dropTarget=0;fillColor=none;points=[[0,0.5],[1,0.5]];portConstraint=eastwest;fontSize=16;" parent="VxrySX8bHII_4migYD42-56" vertex="1">
          <mxGeometry width="39" height="40" as="geometry" />
        </mxCell>
        <mxCell id="VxrySX8bHII_4migYD42-58" style="shape=partialRectangle;html=1;whiteSpace=wrap;connectable=0;strokeColor=#000000;overflow=hidden;fillColor=none;top=0;left=0;bottom=0;right=0;pointerEvents=1;fontSize=16;" parent="VxrySX8bHII_4migYD42-57" vertex="1">
          <mxGeometry width="39" height="40" as="geometry">
            <mxRectangle width="39" height="40" as="alternateBounds" />
          </mxGeometry>
        </mxCell>
        <mxCell id="VxrySX8bHII_4migYD42-59" style="shape=tableRow;horizontal=0;startSize=0;swimlaneHead=0;swimlaneBody=0;strokeColor=#000000;top=0;left=0;bottom=0;right=0;collapsible=0;dropTarget=0;fillColor=none;points=[[0,0.5],[1,0.5]];portConstraint=eastwest;fontSize=16;" parent="VxrySX8bHII_4migYD42-56" vertex="1">
          <mxGeometry y="40" width="39" height="40" as="geometry" />
        </mxCell>
        <mxCell id="VxrySX8bHII_4migYD42-60" style="shape=partialRectangle;html=1;whiteSpace=wrap;connectable=0;strokeColor=#000000;overflow=hidden;fillColor=none;top=0;left=0;bottom=0;right=0;pointerEvents=1;fontSize=16;" parent="VxrySX8bHII_4migYD42-59" vertex="1">
          <mxGeometry width="39" height="40" as="geometry">
            <mxRectangle width="39" height="40" as="alternateBounds" />
          </mxGeometry>
        </mxCell>
        <mxCell id="VxrySX8bHII_4migYD42-61" style="shape=tableRow;horizontal=0;startSize=0;swimlaneHead=0;swimlaneBody=0;strokeColor=#000000;top=0;left=0;bottom=0;right=0;collapsible=0;dropTarget=0;fillColor=none;points=[[0,0.5],[1,0.5]];portConstraint=eastwest;fontSize=16;" parent="VxrySX8bHII_4migYD42-56" vertex="1">
          <mxGeometry y="80" width="39" height="41" as="geometry" />
        </mxCell>
        <mxCell id="VxrySX8bHII_4migYD42-62" style="shape=partialRectangle;html=1;whiteSpace=wrap;connectable=0;strokeColor=#000000;overflow=hidden;fillColor=none;top=0;left=0;bottom=0;right=0;pointerEvents=1;fontSize=16;" parent="VxrySX8bHII_4migYD42-61" vertex="1">
          <mxGeometry width="39" height="41" as="geometry">
            <mxRectangle width="39" height="41" as="alternateBounds" />
          </mxGeometry>
        </mxCell>
        <mxCell id="VxrySX8bHII_4migYD42-63" style="shape=tableRow;horizontal=0;startSize=0;swimlaneHead=0;swimlaneBody=0;strokeColor=#000000;top=0;left=0;bottom=0;right=0;collapsible=0;dropTarget=0;fillColor=none;points=[[0,0.5],[1,0.5]];portConstraint=eastwest;fontSize=16;" parent="VxrySX8bHII_4migYD42-56" vertex="1">
          <mxGeometry y="121" width="39" height="41" as="geometry" />
        </mxCell>
        <mxCell id="VxrySX8bHII_4migYD42-64" style="shape=partialRectangle;html=1;whiteSpace=wrap;connectable=0;strokeColor=#000000;overflow=hidden;fillColor=none;top=0;left=0;bottom=0;right=0;pointerEvents=1;fontSize=16;" parent="VxrySX8bHII_4migYD42-63" vertex="1">
          <mxGeometry width="39" height="41" as="geometry">
            <mxRectangle width="39" height="41" as="alternateBounds" />
          </mxGeometry>
        </mxCell>
        <mxCell id="lRJhLhai7MYSxHj7oOno-167" style="shape=tableRow;horizontal=0;startSize=0;swimlaneHead=0;swimlaneBody=0;strokeColor=#000000;top=0;left=0;bottom=0;right=0;collapsible=0;dropTarget=0;fillColor=none;points=[[0,0.5],[1,0.5]];portConstraint=eastwest;fontSize=16;" vertex="1" parent="VxrySX8bHII_4migYD42-56">
          <mxGeometry y="162" width="39" height="41" as="geometry" />
        </mxCell>
        <mxCell id="lRJhLhai7MYSxHj7oOno-168" style="shape=partialRectangle;html=1;whiteSpace=wrap;connectable=0;strokeColor=#000000;overflow=hidden;fillColor=none;top=0;left=0;bottom=0;right=0;pointerEvents=1;fontSize=16;" vertex="1" parent="lRJhLhai7MYSxHj7oOno-167">
          <mxGeometry width="39" height="41" as="geometry">
            <mxRectangle width="39" height="41" as="alternateBounds" />
          </mxGeometry>
        </mxCell>
        <mxCell id="lRJhLhai7MYSxHj7oOno-169" style="shape=tableRow;horizontal=0;startSize=0;swimlaneHead=0;swimlaneBody=0;strokeColor=#000000;top=0;left=0;bottom=0;right=0;collapsible=0;dropTarget=0;fillColor=none;points=[[0,0.5],[1,0.5]];portConstraint=eastwest;fontSize=16;" vertex="1" parent="VxrySX8bHII_4migYD42-56">
          <mxGeometry y="203" width="39" height="41" as="geometry" />
        </mxCell>
        <mxCell id="lRJhLhai7MYSxHj7oOno-170" style="shape=partialRectangle;html=1;whiteSpace=wrap;connectable=0;strokeColor=#000000;overflow=hidden;fillColor=none;top=0;left=0;bottom=0;right=0;pointerEvents=1;fontSize=16;" vertex="1" parent="lRJhLhai7MYSxHj7oOno-169">
          <mxGeometry width="39" height="41" as="geometry">
            <mxRectangle width="39" height="41" as="alternateBounds" />
          </mxGeometry>
        </mxCell>
        <mxCell id="VxrySX8bHII_4migYD42-65" value="" style="shape=table;startSize=0;container=1;collapsible=0;childLayout=tableLayout;fontSize=16;direction=south;flipH=1;flipV=1;fillColor=#FF33FF;fontColor=#ffffff;strokeColor=#000000;strokeWidth=1;" parent="1" vertex="1">
          <mxGeometry x="-573" y="78" width="39" height="161" as="geometry" />
        </mxCell>
        <mxCell id="VxrySX8bHII_4migYD42-66" style="shape=tableRow;horizontal=0;startSize=0;swimlaneHead=0;swimlaneBody=0;strokeColor=#000000;top=0;left=0;bottom=0;right=0;collapsible=0;dropTarget=0;fillColor=none;points=[[0,0.5],[1,0.5]];portConstraint=eastwest;fontSize=16;" parent="VxrySX8bHII_4migYD42-65" vertex="1">
          <mxGeometry width="39" height="40" as="geometry" />
        </mxCell>
        <mxCell id="VxrySX8bHII_4migYD42-67" style="shape=partialRectangle;html=1;whiteSpace=wrap;connectable=0;strokeColor=#000000;overflow=hidden;fillColor=none;top=0;left=0;bottom=0;right=0;pointerEvents=1;fontSize=16;" parent="VxrySX8bHII_4migYD42-66" vertex="1">
          <mxGeometry width="39" height="40" as="geometry">
            <mxRectangle width="39" height="40" as="alternateBounds" />
          </mxGeometry>
        </mxCell>
        <mxCell id="VxrySX8bHII_4migYD42-68" style="shape=tableRow;horizontal=0;startSize=0;swimlaneHead=0;swimlaneBody=0;strokeColor=#000000;top=0;left=0;bottom=0;right=0;collapsible=0;dropTarget=0;fillColor=none;points=[[0,0.5],[1,0.5]];portConstraint=eastwest;fontSize=16;" parent="VxrySX8bHII_4migYD42-65" vertex="1">
          <mxGeometry y="40" width="39" height="40" as="geometry" />
        </mxCell>
        <mxCell id="VxrySX8bHII_4migYD42-69" style="shape=partialRectangle;html=1;whiteSpace=wrap;connectable=0;strokeColor=#000000;overflow=hidden;fillColor=none;top=0;left=0;bottom=0;right=0;pointerEvents=1;fontSize=16;" parent="VxrySX8bHII_4migYD42-68" vertex="1">
          <mxGeometry width="39" height="40" as="geometry">
            <mxRectangle width="39" height="40" as="alternateBounds" />
          </mxGeometry>
        </mxCell>
        <mxCell id="VxrySX8bHII_4migYD42-70" style="shape=tableRow;horizontal=0;startSize=0;swimlaneHead=0;swimlaneBody=0;strokeColor=#000000;top=0;left=0;bottom=0;right=0;collapsible=0;dropTarget=0;fillColor=none;points=[[0,0.5],[1,0.5]];portConstraint=eastwest;fontSize=16;" parent="VxrySX8bHII_4migYD42-65" vertex="1">
          <mxGeometry y="80" width="39" height="40" as="geometry" />
        </mxCell>
        <mxCell id="VxrySX8bHII_4migYD42-71" style="shape=partialRectangle;html=1;whiteSpace=wrap;connectable=0;strokeColor=#000000;overflow=hidden;fillColor=none;top=0;left=0;bottom=0;right=0;pointerEvents=1;fontSize=16;" parent="VxrySX8bHII_4migYD42-70" vertex="1">
          <mxGeometry width="39" height="40" as="geometry">
            <mxRectangle width="39" height="40" as="alternateBounds" />
          </mxGeometry>
        </mxCell>
        <mxCell id="VxrySX8bHII_4migYD42-72" style="shape=tableRow;horizontal=0;startSize=0;swimlaneHead=0;swimlaneBody=0;strokeColor=#000000;top=0;left=0;bottom=0;right=0;collapsible=0;dropTarget=0;fillColor=none;points=[[0,0.5],[1,0.5]];portConstraint=eastwest;fontSize=16;" parent="VxrySX8bHII_4migYD42-65" vertex="1">
          <mxGeometry y="120" width="39" height="41" as="geometry" />
        </mxCell>
        <mxCell id="VxrySX8bHII_4migYD42-73" style="shape=partialRectangle;html=1;whiteSpace=wrap;connectable=0;strokeColor=#000000;overflow=hidden;fillColor=none;top=0;left=0;bottom=0;right=0;pointerEvents=1;fontSize=16;" parent="VxrySX8bHII_4migYD42-72" vertex="1">
          <mxGeometry width="39" height="41" as="geometry">
            <mxRectangle width="39" height="41" as="alternateBounds" />
          </mxGeometry>
        </mxCell>
        <mxCell id="VxrySX8bHII_4migYD42-74" value="" style="shape=table;startSize=0;container=1;collapsible=0;childLayout=tableLayout;fontSize=16;direction=south;flipH=1;flipV=1;fillColor=#FF3399;fontColor=#ffffff;strokeColor=#000000;strokeWidth=1;" parent="1" vertex="1">
          <mxGeometry x="-640" y="-121" width="39" height="161" as="geometry" />
        </mxCell>
        <mxCell id="VxrySX8bHII_4migYD42-75" style="shape=tableRow;horizontal=0;startSize=0;swimlaneHead=0;swimlaneBody=0;strokeColor=#000000;top=0;left=0;bottom=0;right=0;collapsible=0;dropTarget=0;fillColor=none;points=[[0,0.5],[1,0.5]];portConstraint=eastwest;fontSize=16;" parent="VxrySX8bHII_4migYD42-74" vertex="1">
          <mxGeometry width="39" height="40" as="geometry" />
        </mxCell>
        <mxCell id="VxrySX8bHII_4migYD42-76" style="shape=partialRectangle;html=1;whiteSpace=wrap;connectable=0;strokeColor=#ffd966;overflow=hidden;fillColor=none;top=0;left=0;bottom=0;right=0;pointerEvents=1;fontSize=16;" parent="VxrySX8bHII_4migYD42-75" vertex="1">
          <mxGeometry width="39" height="40" as="geometry">
            <mxRectangle width="39" height="40" as="alternateBounds" />
          </mxGeometry>
        </mxCell>
        <mxCell id="VxrySX8bHII_4migYD42-77" style="shape=tableRow;horizontal=0;startSize=0;swimlaneHead=0;swimlaneBody=0;strokeColor=#000000;top=0;left=0;bottom=0;right=0;collapsible=0;dropTarget=0;fillColor=none;points=[[0,0.5],[1,0.5]];portConstraint=eastwest;fontSize=16;" parent="VxrySX8bHII_4migYD42-74" vertex="1">
          <mxGeometry y="40" width="39" height="40" as="geometry" />
        </mxCell>
        <mxCell id="VxrySX8bHII_4migYD42-78" style="shape=partialRectangle;html=1;whiteSpace=wrap;connectable=0;strokeColor=#000000;overflow=hidden;fillColor=none;top=0;left=0;bottom=0;right=0;pointerEvents=1;fontSize=16;" parent="VxrySX8bHII_4migYD42-77" vertex="1">
          <mxGeometry width="39" height="40" as="geometry">
            <mxRectangle width="39" height="40" as="alternateBounds" />
          </mxGeometry>
        </mxCell>
        <mxCell id="VxrySX8bHII_4migYD42-79" style="shape=tableRow;horizontal=0;startSize=0;swimlaneHead=0;swimlaneBody=0;strokeColor=#000000;top=0;left=0;bottom=0;right=0;collapsible=0;dropTarget=0;fillColor=none;points=[[0,0.5],[1,0.5]];portConstraint=eastwest;fontSize=16;" parent="VxrySX8bHII_4migYD42-74" vertex="1">
          <mxGeometry y="80" width="39" height="40" as="geometry" />
        </mxCell>
        <mxCell id="VxrySX8bHII_4migYD42-80" style="shape=partialRectangle;html=1;whiteSpace=wrap;connectable=0;strokeColor=#8faadc;overflow=hidden;fillColor=none;top=0;left=0;bottom=0;right=0;pointerEvents=1;fontSize=16;" parent="VxrySX8bHII_4migYD42-79" vertex="1">
          <mxGeometry width="39" height="40" as="geometry">
            <mxRectangle width="39" height="40" as="alternateBounds" />
          </mxGeometry>
        </mxCell>
        <mxCell id="VxrySX8bHII_4migYD42-81" style="shape=tableRow;horizontal=0;startSize=0;swimlaneHead=0;swimlaneBody=0;strokeColor=#000000;top=0;left=0;bottom=0;right=0;collapsible=0;dropTarget=0;fillColor=none;points=[[0,0.5],[1,0.5]];portConstraint=eastwest;fontSize=16;" parent="VxrySX8bHII_4migYD42-74" vertex="1">
          <mxGeometry y="120" width="39" height="41" as="geometry" />
        </mxCell>
        <mxCell id="VxrySX8bHII_4migYD42-82" style="shape=partialRectangle;html=1;whiteSpace=wrap;connectable=0;strokeColor=#000000;overflow=hidden;fillColor=none;top=0;left=0;bottom=0;right=0;pointerEvents=1;fontSize=16;" parent="VxrySX8bHII_4migYD42-81" vertex="1">
          <mxGeometry width="39" height="41" as="geometry">
            <mxRectangle width="39" height="41" as="alternateBounds" />
          </mxGeometry>
        </mxCell>
        <mxCell id="VxrySX8bHII_4migYD42-94" value="" style="shape=table;startSize=0;container=1;collapsible=0;childLayout=tableLayout;fontSize=16;direction=south;flipH=1;flipV=1;fillColor=#3399FF;fontColor=#ffffff;strokeColor=#000000;strokeWidth=1;" parent="1" vertex="1">
          <mxGeometry x="-640" y="250" width="39" height="202" as="geometry" />
        </mxCell>
        <mxCell id="VxrySX8bHII_4migYD42-95" style="shape=tableRow;horizontal=0;startSize=0;swimlaneHead=0;swimlaneBody=0;strokeColor=#000000;top=0;left=0;bottom=0;right=0;collapsible=0;dropTarget=0;fillColor=none;points=[[0,0.5],[1,0.5]];portConstraint=eastwest;fontSize=16;" parent="VxrySX8bHII_4migYD42-94" vertex="1">
          <mxGeometry width="39" height="40" as="geometry" />
        </mxCell>
        <mxCell id="VxrySX8bHII_4migYD42-96" style="shape=partialRectangle;html=1;whiteSpace=wrap;connectable=0;strokeColor=#000000;overflow=hidden;fillColor=none;top=0;left=0;bottom=0;right=0;pointerEvents=1;fontSize=16;" parent="VxrySX8bHII_4migYD42-95" vertex="1">
          <mxGeometry width="39" height="40" as="geometry">
            <mxRectangle width="39" height="40" as="alternateBounds" />
          </mxGeometry>
        </mxCell>
        <mxCell id="VxrySX8bHII_4migYD42-97" style="shape=tableRow;horizontal=0;startSize=0;swimlaneHead=0;swimlaneBody=0;strokeColor=#000000;top=0;left=0;bottom=0;right=0;collapsible=0;dropTarget=0;fillColor=none;points=[[0,0.5],[1,0.5]];portConstraint=eastwest;fontSize=16;" parent="VxrySX8bHII_4migYD42-94" vertex="1">
          <mxGeometry y="40" width="39" height="40" as="geometry" />
        </mxCell>
        <mxCell id="VxrySX8bHII_4migYD42-98" style="shape=partialRectangle;html=1;whiteSpace=wrap;connectable=0;strokeColor=#000000;overflow=hidden;fillColor=none;top=0;left=0;bottom=0;right=0;pointerEvents=1;fontSize=16;" parent="VxrySX8bHII_4migYD42-97" vertex="1">
          <mxGeometry width="39" height="40" as="geometry">
            <mxRectangle width="39" height="40" as="alternateBounds" />
          </mxGeometry>
        </mxCell>
        <mxCell id="VxrySX8bHII_4migYD42-99" style="shape=tableRow;horizontal=0;startSize=0;swimlaneHead=0;swimlaneBody=0;strokeColor=#000000;top=0;left=0;bottom=0;right=0;collapsible=0;dropTarget=0;fillColor=none;points=[[0,0.5],[1,0.5]];portConstraint=eastwest;fontSize=16;" parent="VxrySX8bHII_4migYD42-94" vertex="1">
          <mxGeometry y="80" width="39" height="40" as="geometry" />
        </mxCell>
        <mxCell id="VxrySX8bHII_4migYD42-100" style="shape=partialRectangle;html=1;whiteSpace=wrap;connectable=0;strokeColor=#000000;overflow=hidden;fillColor=none;top=0;left=0;bottom=0;right=0;pointerEvents=1;fontSize=16;" parent="VxrySX8bHII_4migYD42-99" vertex="1">
          <mxGeometry width="39" height="40" as="geometry">
            <mxRectangle width="39" height="40" as="alternateBounds" />
          </mxGeometry>
        </mxCell>
        <mxCell id="VxrySX8bHII_4migYD42-101" style="shape=tableRow;horizontal=0;startSize=0;swimlaneHead=0;swimlaneBody=0;strokeColor=#000000;top=0;left=0;bottom=0;right=0;collapsible=0;dropTarget=0;fillColor=none;points=[[0,0.5],[1,0.5]];portConstraint=eastwest;fontSize=16;" parent="VxrySX8bHII_4migYD42-94" vertex="1">
          <mxGeometry y="120" width="39" height="41" as="geometry" />
        </mxCell>
        <mxCell id="VxrySX8bHII_4migYD42-102" style="shape=partialRectangle;html=1;whiteSpace=wrap;connectable=0;strokeColor=#000000;overflow=hidden;fillColor=none;top=0;left=0;bottom=0;right=0;pointerEvents=1;fontSize=16;" parent="VxrySX8bHII_4migYD42-101" vertex="1">
          <mxGeometry width="39" height="41" as="geometry">
            <mxRectangle width="39" height="41" as="alternateBounds" />
          </mxGeometry>
        </mxCell>
        <mxCell id="VxrySX8bHII_4migYD42-103" style="shape=tableRow;horizontal=0;startSize=0;swimlaneHead=0;swimlaneBody=0;strokeColor=#000000;top=0;left=0;bottom=0;right=0;collapsible=0;dropTarget=0;fillColor=none;points=[[0,0.5],[1,0.5]];portConstraint=eastwest;fontSize=16;" parent="VxrySX8bHII_4migYD42-94" vertex="1">
          <mxGeometry y="161" width="39" height="41" as="geometry" />
        </mxCell>
        <mxCell id="VxrySX8bHII_4migYD42-104" style="shape=partialRectangle;html=1;whiteSpace=wrap;connectable=0;strokeColor=#000000;overflow=hidden;fillColor=none;top=0;left=0;bottom=0;right=0;pointerEvents=1;fontSize=16;" parent="VxrySX8bHII_4migYD42-103" vertex="1">
          <mxGeometry width="39" height="41" as="geometry">
            <mxRectangle width="39" height="41" as="alternateBounds" />
          </mxGeometry>
        </mxCell>
        <mxCell id="VxrySX8bHII_4migYD42-105" value="" style="shape=table;startSize=0;container=1;collapsible=0;childLayout=tableLayout;fontSize=16;direction=south;flipH=1;flipV=1;fillColor=#00FFFF;fontColor=#ffffff;strokeColor=#000000;strokeWidth=1;" parent="1" vertex="1">
          <mxGeometry x="-573" y="358" width="39" height="202" as="geometry" />
        </mxCell>
        <mxCell id="VxrySX8bHII_4migYD42-106" style="shape=tableRow;horizontal=0;startSize=0;swimlaneHead=0;swimlaneBody=0;strokeColor=#000000;top=0;left=0;bottom=0;right=0;collapsible=0;dropTarget=0;fillColor=none;points=[[0,0.5],[1,0.5]];portConstraint=eastwest;fontSize=16;" parent="VxrySX8bHII_4migYD42-105" vertex="1">
          <mxGeometry width="39" height="40" as="geometry" />
        </mxCell>
        <mxCell id="VxrySX8bHII_4migYD42-107" style="shape=partialRectangle;html=1;whiteSpace=wrap;connectable=0;strokeColor=#ffd966;overflow=hidden;fillColor=none;top=0;left=0;bottom=0;right=0;pointerEvents=1;fontSize=16;" parent="VxrySX8bHII_4migYD42-106" vertex="1">
          <mxGeometry width="39" height="40" as="geometry">
            <mxRectangle width="39" height="40" as="alternateBounds" />
          </mxGeometry>
        </mxCell>
        <mxCell id="VxrySX8bHII_4migYD42-108" style="shape=tableRow;horizontal=0;startSize=0;swimlaneHead=0;swimlaneBody=0;strokeColor=#000000;top=0;left=0;bottom=0;right=0;collapsible=0;dropTarget=0;fillColor=none;points=[[0,0.5],[1,0.5]];portConstraint=eastwest;fontSize=16;" parent="VxrySX8bHII_4migYD42-105" vertex="1">
          <mxGeometry y="40" width="39" height="40" as="geometry" />
        </mxCell>
        <mxCell id="VxrySX8bHII_4migYD42-109" style="shape=partialRectangle;html=1;whiteSpace=wrap;connectable=0;strokeColor=#000000;overflow=hidden;fillColor=none;top=0;left=0;bottom=0;right=0;pointerEvents=1;fontSize=16;" parent="VxrySX8bHII_4migYD42-108" vertex="1">
          <mxGeometry width="39" height="40" as="geometry">
            <mxRectangle width="39" height="40" as="alternateBounds" />
          </mxGeometry>
        </mxCell>
        <mxCell id="VxrySX8bHII_4migYD42-110" style="shape=tableRow;horizontal=0;startSize=0;swimlaneHead=0;swimlaneBody=0;strokeColor=#000000;top=0;left=0;bottom=0;right=0;collapsible=0;dropTarget=0;fillColor=none;points=[[0,0.5],[1,0.5]];portConstraint=eastwest;fontSize=16;" parent="VxrySX8bHII_4migYD42-105" vertex="1">
          <mxGeometry y="80" width="39" height="40" as="geometry" />
        </mxCell>
        <mxCell id="VxrySX8bHII_4migYD42-111" style="shape=partialRectangle;html=1;whiteSpace=wrap;connectable=0;strokeColor=#8faadc;overflow=hidden;fillColor=none;top=0;left=0;bottom=0;right=0;pointerEvents=1;fontSize=16;" parent="VxrySX8bHII_4migYD42-110" vertex="1">
          <mxGeometry width="39" height="40" as="geometry">
            <mxRectangle width="39" height="40" as="alternateBounds" />
          </mxGeometry>
        </mxCell>
        <mxCell id="VxrySX8bHII_4migYD42-112" style="shape=tableRow;horizontal=0;startSize=0;swimlaneHead=0;swimlaneBody=0;strokeColor=#000000;top=0;left=0;bottom=0;right=0;collapsible=0;dropTarget=0;fillColor=none;points=[[0,0.5],[1,0.5]];portConstraint=eastwest;fontSize=16;" parent="VxrySX8bHII_4migYD42-105" vertex="1">
          <mxGeometry y="120" width="39" height="41" as="geometry" />
        </mxCell>
        <mxCell id="VxrySX8bHII_4migYD42-113" style="shape=partialRectangle;html=1;whiteSpace=wrap;connectable=0;strokeColor=#000000;overflow=hidden;fillColor=none;top=0;left=0;bottom=0;right=0;pointerEvents=1;fontSize=16;" parent="VxrySX8bHII_4migYD42-112" vertex="1">
          <mxGeometry width="39" height="41" as="geometry">
            <mxRectangle width="39" height="41" as="alternateBounds" />
          </mxGeometry>
        </mxCell>
        <mxCell id="VxrySX8bHII_4migYD42-114" style="shape=tableRow;horizontal=0;startSize=0;swimlaneHead=0;swimlaneBody=0;strokeColor=#000000;top=0;left=0;bottom=0;right=0;collapsible=0;dropTarget=0;fillColor=none;points=[[0,0.5],[1,0.5]];portConstraint=eastwest;fontSize=16;" parent="VxrySX8bHII_4migYD42-105" vertex="1">
          <mxGeometry y="161" width="39" height="41" as="geometry" />
        </mxCell>
        <mxCell id="VxrySX8bHII_4migYD42-115" style="shape=partialRectangle;html=1;whiteSpace=wrap;connectable=0;strokeColor=#000000;overflow=hidden;fillColor=none;top=0;left=0;bottom=0;right=0;pointerEvents=1;fontSize=16;" parent="VxrySX8bHII_4migYD42-114" vertex="1">
          <mxGeometry width="39" height="41" as="geometry">
            <mxRectangle width="39" height="41" as="alternateBounds" />
          </mxGeometry>
        </mxCell>
        <mxCell id="lRJhLhai7MYSxHj7oOno-13" value="" style="shape=table;startSize=0;container=1;collapsible=0;childLayout=tableLayout;fontSize=16;direction=south;flipH=1;flipV=1;fillColor=#FF3399;fontColor=#ffffff;strokeColor=#000000;" vertex="1" parent="1">
          <mxGeometry x="-920" y="-122" width="200" height="160" as="geometry" />
        </mxCell>
        <mxCell id="lRJhLhai7MYSxHj7oOno-14" style="shape=tableRow;horizontal=0;startSize=0;swimlaneHead=0;swimlaneBody=0;strokeColor=#000000;top=0;left=0;bottom=0;right=0;collapsible=0;dropTarget=0;fillColor=none;points=[[0,0.5],[1,0.5]];portConstraint=eastwest;fontSize=16;" vertex="1" parent="lRJhLhai7MYSxHj7oOno-13">
          <mxGeometry width="200" height="40" as="geometry" />
        </mxCell>
        <mxCell id="lRJhLhai7MYSxHj7oOno-15" style="shape=partialRectangle;html=1;whiteSpace=wrap;connectable=0;strokeColor=#000000;overflow=hidden;fillColor=none;top=0;left=0;bottom=0;right=0;pointerEvents=1;fontSize=16;" vertex="1" parent="lRJhLhai7MYSxHj7oOno-14">
          <mxGeometry width="39" height="40" as="geometry">
            <mxRectangle width="39" height="40" as="alternateBounds" />
          </mxGeometry>
        </mxCell>
        <mxCell id="lRJhLhai7MYSxHj7oOno-16" style="shape=partialRectangle;html=1;whiteSpace=wrap;connectable=0;strokeColor=#000000;overflow=hidden;fillColor=none;top=0;left=0;bottom=0;right=0;pointerEvents=1;fontSize=16;" vertex="1" parent="lRJhLhai7MYSxHj7oOno-14">
          <mxGeometry x="39" width="42" height="40" as="geometry">
            <mxRectangle width="42" height="40" as="alternateBounds" />
          </mxGeometry>
        </mxCell>
        <mxCell id="lRJhLhai7MYSxHj7oOno-17" style="shape=partialRectangle;html=1;whiteSpace=wrap;connectable=0;strokeColor=#000000;overflow=hidden;fillColor=none;top=0;left=0;bottom=0;right=0;pointerEvents=1;fontSize=16;" vertex="1" parent="lRJhLhai7MYSxHj7oOno-14">
          <mxGeometry x="81" width="41" height="40" as="geometry">
            <mxRectangle width="41" height="40" as="alternateBounds" />
          </mxGeometry>
        </mxCell>
        <mxCell id="lRJhLhai7MYSxHj7oOno-18" style="shape=partialRectangle;html=1;whiteSpace=wrap;connectable=0;strokeColor=#000000;overflow=hidden;fillColor=none;top=0;left=0;bottom=0;right=0;pointerEvents=1;fontSize=16;" vertex="1" parent="lRJhLhai7MYSxHj7oOno-14">
          <mxGeometry x="122" width="38" height="40" as="geometry">
            <mxRectangle width="38" height="40" as="alternateBounds" />
          </mxGeometry>
        </mxCell>
        <mxCell id="lRJhLhai7MYSxHj7oOno-19" style="shape=partialRectangle;html=1;whiteSpace=wrap;connectable=0;strokeColor=#000000;overflow=hidden;fillColor=none;top=0;left=0;bottom=0;right=0;pointerEvents=1;fontSize=16;" vertex="1" parent="lRJhLhai7MYSxHj7oOno-14">
          <mxGeometry x="160" width="40" height="40" as="geometry">
            <mxRectangle width="40" height="40" as="alternateBounds" />
          </mxGeometry>
        </mxCell>
        <mxCell id="lRJhLhai7MYSxHj7oOno-20" style="shape=tableRow;horizontal=0;startSize=0;swimlaneHead=0;swimlaneBody=0;strokeColor=#000000;top=0;left=0;bottom=0;right=0;collapsible=0;dropTarget=0;fillColor=none;points=[[0,0.5],[1,0.5]];portConstraint=eastwest;fontSize=16;" vertex="1" parent="lRJhLhai7MYSxHj7oOno-13">
          <mxGeometry y="40" width="200" height="40" as="geometry" />
        </mxCell>
        <mxCell id="lRJhLhai7MYSxHj7oOno-21" style="shape=partialRectangle;html=1;whiteSpace=wrap;connectable=0;strokeColor=#000000;overflow=hidden;fillColor=none;top=0;left=0;bottom=0;right=0;pointerEvents=1;fontSize=16;" vertex="1" parent="lRJhLhai7MYSxHj7oOno-20">
          <mxGeometry width="39" height="40" as="geometry">
            <mxRectangle width="39" height="40" as="alternateBounds" />
          </mxGeometry>
        </mxCell>
        <mxCell id="lRJhLhai7MYSxHj7oOno-22" style="shape=partialRectangle;html=1;whiteSpace=wrap;connectable=0;strokeColor=#000000;overflow=hidden;fillColor=none;top=0;left=0;bottom=0;right=0;pointerEvents=1;fontSize=16;" vertex="1" parent="lRJhLhai7MYSxHj7oOno-20">
          <mxGeometry x="39" width="42" height="40" as="geometry">
            <mxRectangle width="42" height="40" as="alternateBounds" />
          </mxGeometry>
        </mxCell>
        <mxCell id="lRJhLhai7MYSxHj7oOno-23" style="shape=partialRectangle;html=1;whiteSpace=wrap;connectable=0;strokeColor=#000000;overflow=hidden;fillColor=none;top=0;left=0;bottom=0;right=0;pointerEvents=1;fontSize=16;" vertex="1" parent="lRJhLhai7MYSxHj7oOno-20">
          <mxGeometry x="81" width="41" height="40" as="geometry">
            <mxRectangle width="41" height="40" as="alternateBounds" />
          </mxGeometry>
        </mxCell>
        <mxCell id="lRJhLhai7MYSxHj7oOno-24" style="shape=partialRectangle;html=1;whiteSpace=wrap;connectable=0;strokeColor=#000000;overflow=hidden;fillColor=none;top=0;left=0;bottom=0;right=0;pointerEvents=1;fontSize=16;" vertex="1" parent="lRJhLhai7MYSxHj7oOno-20">
          <mxGeometry x="122" width="38" height="40" as="geometry">
            <mxRectangle width="38" height="40" as="alternateBounds" />
          </mxGeometry>
        </mxCell>
        <mxCell id="lRJhLhai7MYSxHj7oOno-25" style="shape=partialRectangle;html=1;whiteSpace=wrap;connectable=0;strokeColor=#000000;overflow=hidden;fillColor=none;top=0;left=0;bottom=0;right=0;pointerEvents=1;fontSize=16;" vertex="1" parent="lRJhLhai7MYSxHj7oOno-20">
          <mxGeometry x="160" width="40" height="40" as="geometry">
            <mxRectangle width="40" height="40" as="alternateBounds" />
          </mxGeometry>
        </mxCell>
        <mxCell id="lRJhLhai7MYSxHj7oOno-26" style="shape=tableRow;horizontal=0;startSize=0;swimlaneHead=0;swimlaneBody=0;strokeColor=#000000;top=0;left=0;bottom=0;right=0;collapsible=0;dropTarget=0;fillColor=none;points=[[0,0.5],[1,0.5]];portConstraint=eastwest;fontSize=16;" vertex="1" parent="lRJhLhai7MYSxHj7oOno-13">
          <mxGeometry y="80" width="200" height="41" as="geometry" />
        </mxCell>
        <mxCell id="lRJhLhai7MYSxHj7oOno-27" style="shape=partialRectangle;html=1;whiteSpace=wrap;connectable=0;strokeColor=#000000;overflow=hidden;fillColor=none;top=0;left=0;bottom=0;right=0;pointerEvents=1;fontSize=16;" vertex="1" parent="lRJhLhai7MYSxHj7oOno-26">
          <mxGeometry width="39" height="41" as="geometry">
            <mxRectangle width="39" height="41" as="alternateBounds" />
          </mxGeometry>
        </mxCell>
        <mxCell id="lRJhLhai7MYSxHj7oOno-28" style="shape=partialRectangle;html=1;whiteSpace=wrap;connectable=0;strokeColor=#000000;overflow=hidden;fillColor=none;top=0;left=0;bottom=0;right=0;pointerEvents=1;fontSize=16;" vertex="1" parent="lRJhLhai7MYSxHj7oOno-26">
          <mxGeometry x="39" width="42" height="41" as="geometry">
            <mxRectangle width="42" height="41" as="alternateBounds" />
          </mxGeometry>
        </mxCell>
        <mxCell id="lRJhLhai7MYSxHj7oOno-29" style="shape=partialRectangle;html=1;whiteSpace=wrap;connectable=0;strokeColor=#000000;overflow=hidden;fillColor=none;top=0;left=0;bottom=0;right=0;pointerEvents=1;fontSize=16;" vertex="1" parent="lRJhLhai7MYSxHj7oOno-26">
          <mxGeometry x="81" width="41" height="41" as="geometry">
            <mxRectangle width="41" height="41" as="alternateBounds" />
          </mxGeometry>
        </mxCell>
        <mxCell id="lRJhLhai7MYSxHj7oOno-30" style="shape=partialRectangle;html=1;whiteSpace=wrap;connectable=0;strokeColor=#000000;overflow=hidden;fillColor=none;top=0;left=0;bottom=0;right=0;pointerEvents=1;fontSize=16;" vertex="1" parent="lRJhLhai7MYSxHj7oOno-26">
          <mxGeometry x="122" width="38" height="41" as="geometry">
            <mxRectangle width="38" height="41" as="alternateBounds" />
          </mxGeometry>
        </mxCell>
        <mxCell id="lRJhLhai7MYSxHj7oOno-31" style="shape=partialRectangle;html=1;whiteSpace=wrap;connectable=0;strokeColor=#000000;overflow=hidden;fillColor=none;top=0;left=0;bottom=0;right=0;pointerEvents=1;fontSize=16;" vertex="1" parent="lRJhLhai7MYSxHj7oOno-26">
          <mxGeometry x="160" width="40" height="41" as="geometry">
            <mxRectangle width="40" height="41" as="alternateBounds" />
          </mxGeometry>
        </mxCell>
        <mxCell id="lRJhLhai7MYSxHj7oOno-32" value="" style="shape=tableRow;horizontal=0;startSize=0;swimlaneHead=0;swimlaneBody=0;strokeColor=#000000;top=0;left=0;bottom=0;right=0;collapsible=0;dropTarget=0;fillColor=none;points=[[0,0.5],[1,0.5]];portConstraint=eastwest;fontSize=16;" vertex="1" parent="lRJhLhai7MYSxHj7oOno-13">
          <mxGeometry y="121" width="200" height="39" as="geometry" />
        </mxCell>
        <mxCell id="lRJhLhai7MYSxHj7oOno-33" value="" style="shape=partialRectangle;html=1;whiteSpace=wrap;connectable=0;strokeColor=#000000;overflow=hidden;fillColor=none;top=0;left=0;bottom=0;right=0;pointerEvents=1;fontSize=16;" vertex="1" parent="lRJhLhai7MYSxHj7oOno-32">
          <mxGeometry width="39" height="39" as="geometry">
            <mxRectangle width="39" height="39" as="alternateBounds" />
          </mxGeometry>
        </mxCell>
        <mxCell id="lRJhLhai7MYSxHj7oOno-34" value="" style="shape=partialRectangle;html=1;whiteSpace=wrap;connectable=0;strokeColor=#000000;overflow=hidden;fillColor=none;top=0;left=0;bottom=0;right=0;pointerEvents=1;fontSize=16;" vertex="1" parent="lRJhLhai7MYSxHj7oOno-32">
          <mxGeometry x="39" width="42" height="39" as="geometry">
            <mxRectangle width="42" height="39" as="alternateBounds" />
          </mxGeometry>
        </mxCell>
        <mxCell id="lRJhLhai7MYSxHj7oOno-35" value="" style="shape=partialRectangle;html=1;whiteSpace=wrap;connectable=0;strokeColor=#000000;overflow=hidden;fillColor=none;top=0;left=0;bottom=0;right=0;pointerEvents=1;fontSize=16;" vertex="1" parent="lRJhLhai7MYSxHj7oOno-32">
          <mxGeometry x="81" width="41" height="39" as="geometry">
            <mxRectangle width="41" height="39" as="alternateBounds" />
          </mxGeometry>
        </mxCell>
        <mxCell id="lRJhLhai7MYSxHj7oOno-36" style="shape=partialRectangle;html=1;whiteSpace=wrap;connectable=0;strokeColor=#000000;overflow=hidden;fillColor=none;top=0;left=0;bottom=0;right=0;pointerEvents=1;fontSize=16;" vertex="1" parent="lRJhLhai7MYSxHj7oOno-32">
          <mxGeometry x="122" width="38" height="39" as="geometry">
            <mxRectangle width="38" height="39" as="alternateBounds" />
          </mxGeometry>
        </mxCell>
        <mxCell id="lRJhLhai7MYSxHj7oOno-37" style="shape=partialRectangle;html=1;whiteSpace=wrap;connectable=0;strokeColor=#000000;overflow=hidden;fillColor=none;top=0;left=0;bottom=0;right=0;pointerEvents=1;fontSize=16;" vertex="1" parent="lRJhLhai7MYSxHj7oOno-32">
          <mxGeometry x="160" width="40" height="39" as="geometry">
            <mxRectangle width="40" height="39" as="alternateBounds" />
          </mxGeometry>
        </mxCell>
        <mxCell id="lRJhLhai7MYSxHj7oOno-56" value="" style="shape=table;startSize=0;container=1;collapsible=0;childLayout=tableLayout;fontSize=16;direction=south;flipH=1;flipV=1;fillColor=#FF33FF;fontColor=#ffffff;strokeColor=#000000;" vertex="1" parent="1">
          <mxGeometry x="-920" y="78" width="200" height="160" as="geometry" />
        </mxCell>
        <mxCell id="lRJhLhai7MYSxHj7oOno-57" style="shape=tableRow;horizontal=0;startSize=0;swimlaneHead=0;swimlaneBody=0;strokeColor=#000000;top=0;left=0;bottom=0;right=0;collapsible=0;dropTarget=0;fillColor=none;points=[[0,0.5],[1,0.5]];portConstraint=eastwest;fontSize=16;" vertex="1" parent="lRJhLhai7MYSxHj7oOno-56">
          <mxGeometry width="200" height="40" as="geometry" />
        </mxCell>
        <mxCell id="lRJhLhai7MYSxHj7oOno-58" style="shape=partialRectangle;html=1;whiteSpace=wrap;connectable=0;strokeColor=#000000;overflow=hidden;fillColor=none;top=0;left=0;bottom=0;right=0;pointerEvents=1;fontSize=16;" vertex="1" parent="lRJhLhai7MYSxHj7oOno-57">
          <mxGeometry width="39" height="40" as="geometry">
            <mxRectangle width="39" height="40" as="alternateBounds" />
          </mxGeometry>
        </mxCell>
        <mxCell id="lRJhLhai7MYSxHj7oOno-59" style="shape=partialRectangle;html=1;whiteSpace=wrap;connectable=0;strokeColor=#000000;overflow=hidden;fillColor=none;top=0;left=0;bottom=0;right=0;pointerEvents=1;fontSize=16;" vertex="1" parent="lRJhLhai7MYSxHj7oOno-57">
          <mxGeometry x="39" width="42" height="40" as="geometry">
            <mxRectangle width="42" height="40" as="alternateBounds" />
          </mxGeometry>
        </mxCell>
        <mxCell id="lRJhLhai7MYSxHj7oOno-60" style="shape=partialRectangle;html=1;whiteSpace=wrap;connectable=0;strokeColor=#000000;overflow=hidden;fillColor=none;top=0;left=0;bottom=0;right=0;pointerEvents=1;fontSize=16;" vertex="1" parent="lRJhLhai7MYSxHj7oOno-57">
          <mxGeometry x="81" width="41" height="40" as="geometry">
            <mxRectangle width="41" height="40" as="alternateBounds" />
          </mxGeometry>
        </mxCell>
        <mxCell id="lRJhLhai7MYSxHj7oOno-61" style="shape=partialRectangle;html=1;whiteSpace=wrap;connectable=0;strokeColor=#000000;overflow=hidden;fillColor=none;top=0;left=0;bottom=0;right=0;pointerEvents=1;fontSize=16;" vertex="1" parent="lRJhLhai7MYSxHj7oOno-57">
          <mxGeometry x="122" width="38" height="40" as="geometry">
            <mxRectangle width="38" height="40" as="alternateBounds" />
          </mxGeometry>
        </mxCell>
        <mxCell id="lRJhLhai7MYSxHj7oOno-62" style="shape=partialRectangle;html=1;whiteSpace=wrap;connectable=0;strokeColor=#000000;overflow=hidden;fillColor=none;top=0;left=0;bottom=0;right=0;pointerEvents=1;fontSize=16;" vertex="1" parent="lRJhLhai7MYSxHj7oOno-57">
          <mxGeometry x="160" width="40" height="40" as="geometry">
            <mxRectangle width="40" height="40" as="alternateBounds" />
          </mxGeometry>
        </mxCell>
        <mxCell id="lRJhLhai7MYSxHj7oOno-63" style="shape=tableRow;horizontal=0;startSize=0;swimlaneHead=0;swimlaneBody=0;strokeColor=#000000;top=0;left=0;bottom=0;right=0;collapsible=0;dropTarget=0;fillColor=none;points=[[0,0.5],[1,0.5]];portConstraint=eastwest;fontSize=16;" vertex="1" parent="lRJhLhai7MYSxHj7oOno-56">
          <mxGeometry y="40" width="200" height="40" as="geometry" />
        </mxCell>
        <mxCell id="lRJhLhai7MYSxHj7oOno-64" style="shape=partialRectangle;html=1;whiteSpace=wrap;connectable=0;strokeColor=#000000;overflow=hidden;fillColor=none;top=0;left=0;bottom=0;right=0;pointerEvents=1;fontSize=16;" vertex="1" parent="lRJhLhai7MYSxHj7oOno-63">
          <mxGeometry width="39" height="40" as="geometry">
            <mxRectangle width="39" height="40" as="alternateBounds" />
          </mxGeometry>
        </mxCell>
        <mxCell id="lRJhLhai7MYSxHj7oOno-65" style="shape=partialRectangle;html=1;whiteSpace=wrap;connectable=0;strokeColor=#000000;overflow=hidden;fillColor=none;top=0;left=0;bottom=0;right=0;pointerEvents=1;fontSize=16;" vertex="1" parent="lRJhLhai7MYSxHj7oOno-63">
          <mxGeometry x="39" width="42" height="40" as="geometry">
            <mxRectangle width="42" height="40" as="alternateBounds" />
          </mxGeometry>
        </mxCell>
        <mxCell id="lRJhLhai7MYSxHj7oOno-66" style="shape=partialRectangle;html=1;whiteSpace=wrap;connectable=0;strokeColor=#000000;overflow=hidden;fillColor=none;top=0;left=0;bottom=0;right=0;pointerEvents=1;fontSize=16;" vertex="1" parent="lRJhLhai7MYSxHj7oOno-63">
          <mxGeometry x="81" width="41" height="40" as="geometry">
            <mxRectangle width="41" height="40" as="alternateBounds" />
          </mxGeometry>
        </mxCell>
        <mxCell id="lRJhLhai7MYSxHj7oOno-67" style="shape=partialRectangle;html=1;whiteSpace=wrap;connectable=0;strokeColor=#000000;overflow=hidden;fillColor=none;top=0;left=0;bottom=0;right=0;pointerEvents=1;fontSize=16;" vertex="1" parent="lRJhLhai7MYSxHj7oOno-63">
          <mxGeometry x="122" width="38" height="40" as="geometry">
            <mxRectangle width="38" height="40" as="alternateBounds" />
          </mxGeometry>
        </mxCell>
        <mxCell id="lRJhLhai7MYSxHj7oOno-68" style="shape=partialRectangle;html=1;whiteSpace=wrap;connectable=0;strokeColor=#000000;overflow=hidden;fillColor=none;top=0;left=0;bottom=0;right=0;pointerEvents=1;fontSize=16;" vertex="1" parent="lRJhLhai7MYSxHj7oOno-63">
          <mxGeometry x="160" width="40" height="40" as="geometry">
            <mxRectangle width="40" height="40" as="alternateBounds" />
          </mxGeometry>
        </mxCell>
        <mxCell id="lRJhLhai7MYSxHj7oOno-69" style="shape=tableRow;horizontal=0;startSize=0;swimlaneHead=0;swimlaneBody=0;strokeColor=#000000;top=0;left=0;bottom=0;right=0;collapsible=0;dropTarget=0;fillColor=none;points=[[0,0.5],[1,0.5]];portConstraint=eastwest;fontSize=16;" vertex="1" parent="lRJhLhai7MYSxHj7oOno-56">
          <mxGeometry y="80" width="200" height="41" as="geometry" />
        </mxCell>
        <mxCell id="lRJhLhai7MYSxHj7oOno-70" style="shape=partialRectangle;html=1;whiteSpace=wrap;connectable=0;strokeColor=#000000;overflow=hidden;fillColor=none;top=0;left=0;bottom=0;right=0;pointerEvents=1;fontSize=16;" vertex="1" parent="lRJhLhai7MYSxHj7oOno-69">
          <mxGeometry width="39" height="41" as="geometry">
            <mxRectangle width="39" height="41" as="alternateBounds" />
          </mxGeometry>
        </mxCell>
        <mxCell id="lRJhLhai7MYSxHj7oOno-71" style="shape=partialRectangle;html=1;whiteSpace=wrap;connectable=0;strokeColor=#000000;overflow=hidden;fillColor=none;top=0;left=0;bottom=0;right=0;pointerEvents=1;fontSize=16;" vertex="1" parent="lRJhLhai7MYSxHj7oOno-69">
          <mxGeometry x="39" width="42" height="41" as="geometry">
            <mxRectangle width="42" height="41" as="alternateBounds" />
          </mxGeometry>
        </mxCell>
        <mxCell id="lRJhLhai7MYSxHj7oOno-72" style="shape=partialRectangle;html=1;whiteSpace=wrap;connectable=0;strokeColor=#000000;overflow=hidden;fillColor=none;top=0;left=0;bottom=0;right=0;pointerEvents=1;fontSize=16;" vertex="1" parent="lRJhLhai7MYSxHj7oOno-69">
          <mxGeometry x="81" width="41" height="41" as="geometry">
            <mxRectangle width="41" height="41" as="alternateBounds" />
          </mxGeometry>
        </mxCell>
        <mxCell id="lRJhLhai7MYSxHj7oOno-73" style="shape=partialRectangle;html=1;whiteSpace=wrap;connectable=0;strokeColor=#000000;overflow=hidden;fillColor=none;top=0;left=0;bottom=0;right=0;pointerEvents=1;fontSize=16;" vertex="1" parent="lRJhLhai7MYSxHj7oOno-69">
          <mxGeometry x="122" width="38" height="41" as="geometry">
            <mxRectangle width="38" height="41" as="alternateBounds" />
          </mxGeometry>
        </mxCell>
        <mxCell id="lRJhLhai7MYSxHj7oOno-74" style="shape=partialRectangle;html=1;whiteSpace=wrap;connectable=0;strokeColor=#000000;overflow=hidden;fillColor=none;top=0;left=0;bottom=0;right=0;pointerEvents=1;fontSize=16;" vertex="1" parent="lRJhLhai7MYSxHj7oOno-69">
          <mxGeometry x="160" width="40" height="41" as="geometry">
            <mxRectangle width="40" height="41" as="alternateBounds" />
          </mxGeometry>
        </mxCell>
        <mxCell id="lRJhLhai7MYSxHj7oOno-75" value="" style="shape=tableRow;horizontal=0;startSize=0;swimlaneHead=0;swimlaneBody=0;strokeColor=#000000;top=0;left=0;bottom=0;right=0;collapsible=0;dropTarget=0;fillColor=none;points=[[0,0.5],[1,0.5]];portConstraint=eastwest;fontSize=16;" vertex="1" parent="lRJhLhai7MYSxHj7oOno-56">
          <mxGeometry y="121" width="200" height="39" as="geometry" />
        </mxCell>
        <mxCell id="lRJhLhai7MYSxHj7oOno-76" value="" style="shape=partialRectangle;html=1;whiteSpace=wrap;connectable=0;strokeColor=#000000;overflow=hidden;fillColor=none;top=0;left=0;bottom=0;right=0;pointerEvents=1;fontSize=16;" vertex="1" parent="lRJhLhai7MYSxHj7oOno-75">
          <mxGeometry width="39" height="39" as="geometry">
            <mxRectangle width="39" height="39" as="alternateBounds" />
          </mxGeometry>
        </mxCell>
        <mxCell id="lRJhLhai7MYSxHj7oOno-77" value="" style="shape=partialRectangle;html=1;whiteSpace=wrap;connectable=0;strokeColor=#000000;overflow=hidden;fillColor=none;top=0;left=0;bottom=0;right=0;pointerEvents=1;fontSize=16;" vertex="1" parent="lRJhLhai7MYSxHj7oOno-75">
          <mxGeometry x="39" width="42" height="39" as="geometry">
            <mxRectangle width="42" height="39" as="alternateBounds" />
          </mxGeometry>
        </mxCell>
        <mxCell id="lRJhLhai7MYSxHj7oOno-78" value="" style="shape=partialRectangle;html=1;whiteSpace=wrap;connectable=0;strokeColor=#000000;overflow=hidden;fillColor=none;top=0;left=0;bottom=0;right=0;pointerEvents=1;fontSize=16;" vertex="1" parent="lRJhLhai7MYSxHj7oOno-75">
          <mxGeometry x="81" width="41" height="39" as="geometry">
            <mxRectangle width="41" height="39" as="alternateBounds" />
          </mxGeometry>
        </mxCell>
        <mxCell id="lRJhLhai7MYSxHj7oOno-79" style="shape=partialRectangle;html=1;whiteSpace=wrap;connectable=0;strokeColor=#000000;overflow=hidden;fillColor=none;top=0;left=0;bottom=0;right=0;pointerEvents=1;fontSize=16;" vertex="1" parent="lRJhLhai7MYSxHj7oOno-75">
          <mxGeometry x="122" width="38" height="39" as="geometry">
            <mxRectangle width="38" height="39" as="alternateBounds" />
          </mxGeometry>
        </mxCell>
        <mxCell id="lRJhLhai7MYSxHj7oOno-80" style="shape=partialRectangle;html=1;whiteSpace=wrap;connectable=0;strokeColor=#000000;overflow=hidden;fillColor=none;top=0;left=0;bottom=0;right=0;pointerEvents=1;fontSize=16;" vertex="1" parent="lRJhLhai7MYSxHj7oOno-75">
          <mxGeometry x="160" width="40" height="39" as="geometry">
            <mxRectangle width="40" height="39" as="alternateBounds" />
          </mxGeometry>
        </mxCell>
        <mxCell id="lRJhLhai7MYSxHj7oOno-81" value="" style="shape=table;startSize=0;container=1;collapsible=0;childLayout=tableLayout;fontSize=16;direction=south;flipH=1;flipV=1;fillColor=#3399FF;fontColor=#ffffff;strokeColor=#000000;" vertex="1" parent="1">
          <mxGeometry x="-920" y="277" width="200" height="121" as="geometry" />
        </mxCell>
        <mxCell id="lRJhLhai7MYSxHj7oOno-82" style="shape=tableRow;horizontal=0;startSize=0;swimlaneHead=0;swimlaneBody=0;strokeColor=#000000;top=0;left=0;bottom=0;right=0;collapsible=0;dropTarget=0;fillColor=none;points=[[0,0.5],[1,0.5]];portConstraint=eastwest;fontSize=16;" vertex="1" parent="lRJhLhai7MYSxHj7oOno-81">
          <mxGeometry width="200" height="40" as="geometry" />
        </mxCell>
        <mxCell id="lRJhLhai7MYSxHj7oOno-83" style="shape=partialRectangle;html=1;whiteSpace=wrap;connectable=0;strokeColor=#000000;overflow=hidden;fillColor=none;top=0;left=0;bottom=0;right=0;pointerEvents=1;fontSize=16;" vertex="1" parent="lRJhLhai7MYSxHj7oOno-82">
          <mxGeometry width="39" height="40" as="geometry">
            <mxRectangle width="39" height="40" as="alternateBounds" />
          </mxGeometry>
        </mxCell>
        <mxCell id="lRJhLhai7MYSxHj7oOno-84" style="shape=partialRectangle;html=1;whiteSpace=wrap;connectable=0;strokeColor=#000000;overflow=hidden;fillColor=none;top=0;left=0;bottom=0;right=0;pointerEvents=1;fontSize=16;" vertex="1" parent="lRJhLhai7MYSxHj7oOno-82">
          <mxGeometry x="39" width="42" height="40" as="geometry">
            <mxRectangle width="42" height="40" as="alternateBounds" />
          </mxGeometry>
        </mxCell>
        <mxCell id="lRJhLhai7MYSxHj7oOno-85" style="shape=partialRectangle;html=1;whiteSpace=wrap;connectable=0;strokeColor=#000000;overflow=hidden;fillColor=none;top=0;left=0;bottom=0;right=0;pointerEvents=1;fontSize=16;" vertex="1" parent="lRJhLhai7MYSxHj7oOno-82">
          <mxGeometry x="81" width="41" height="40" as="geometry">
            <mxRectangle width="41" height="40" as="alternateBounds" />
          </mxGeometry>
        </mxCell>
        <mxCell id="lRJhLhai7MYSxHj7oOno-86" style="shape=partialRectangle;html=1;whiteSpace=wrap;connectable=0;strokeColor=#000000;overflow=hidden;fillColor=none;top=0;left=0;bottom=0;right=0;pointerEvents=1;fontSize=16;" vertex="1" parent="lRJhLhai7MYSxHj7oOno-82">
          <mxGeometry x="122" width="38" height="40" as="geometry">
            <mxRectangle width="38" height="40" as="alternateBounds" />
          </mxGeometry>
        </mxCell>
        <mxCell id="lRJhLhai7MYSxHj7oOno-87" style="shape=partialRectangle;html=1;whiteSpace=wrap;connectable=0;strokeColor=#000000;overflow=hidden;fillColor=none;top=0;left=0;bottom=0;right=0;pointerEvents=1;fontSize=16;" vertex="1" parent="lRJhLhai7MYSxHj7oOno-82">
          <mxGeometry x="160" width="40" height="40" as="geometry">
            <mxRectangle width="40" height="40" as="alternateBounds" />
          </mxGeometry>
        </mxCell>
        <mxCell id="lRJhLhai7MYSxHj7oOno-88" style="shape=tableRow;horizontal=0;startSize=0;swimlaneHead=0;swimlaneBody=0;strokeColor=#000000;top=0;left=0;bottom=0;right=0;collapsible=0;dropTarget=0;fillColor=none;points=[[0,0.5],[1,0.5]];portConstraint=eastwest;fontSize=16;" vertex="1" parent="lRJhLhai7MYSxHj7oOno-81">
          <mxGeometry y="40" width="200" height="40" as="geometry" />
        </mxCell>
        <mxCell id="lRJhLhai7MYSxHj7oOno-89" style="shape=partialRectangle;html=1;whiteSpace=wrap;connectable=0;strokeColor=#000000;overflow=hidden;fillColor=none;top=0;left=0;bottom=0;right=0;pointerEvents=1;fontSize=16;" vertex="1" parent="lRJhLhai7MYSxHj7oOno-88">
          <mxGeometry width="39" height="40" as="geometry">
            <mxRectangle width="39" height="40" as="alternateBounds" />
          </mxGeometry>
        </mxCell>
        <mxCell id="lRJhLhai7MYSxHj7oOno-90" style="shape=partialRectangle;html=1;whiteSpace=wrap;connectable=0;strokeColor=#000000;overflow=hidden;fillColor=none;top=0;left=0;bottom=0;right=0;pointerEvents=1;fontSize=16;" vertex="1" parent="lRJhLhai7MYSxHj7oOno-88">
          <mxGeometry x="39" width="42" height="40" as="geometry">
            <mxRectangle width="42" height="40" as="alternateBounds" />
          </mxGeometry>
        </mxCell>
        <mxCell id="lRJhLhai7MYSxHj7oOno-91" style="shape=partialRectangle;html=1;whiteSpace=wrap;connectable=0;strokeColor=#000000;overflow=hidden;fillColor=none;top=0;left=0;bottom=0;right=0;pointerEvents=1;fontSize=16;" vertex="1" parent="lRJhLhai7MYSxHj7oOno-88">
          <mxGeometry x="81" width="41" height="40" as="geometry">
            <mxRectangle width="41" height="40" as="alternateBounds" />
          </mxGeometry>
        </mxCell>
        <mxCell id="lRJhLhai7MYSxHj7oOno-92" style="shape=partialRectangle;html=1;whiteSpace=wrap;connectable=0;strokeColor=#000000;overflow=hidden;fillColor=none;top=0;left=0;bottom=0;right=0;pointerEvents=1;fontSize=16;" vertex="1" parent="lRJhLhai7MYSxHj7oOno-88">
          <mxGeometry x="122" width="38" height="40" as="geometry">
            <mxRectangle width="38" height="40" as="alternateBounds" />
          </mxGeometry>
        </mxCell>
        <mxCell id="lRJhLhai7MYSxHj7oOno-93" style="shape=partialRectangle;html=1;whiteSpace=wrap;connectable=0;strokeColor=#000000;overflow=hidden;fillColor=none;top=0;left=0;bottom=0;right=0;pointerEvents=1;fontSize=16;" vertex="1" parent="lRJhLhai7MYSxHj7oOno-88">
          <mxGeometry x="160" width="40" height="40" as="geometry">
            <mxRectangle width="40" height="40" as="alternateBounds" />
          </mxGeometry>
        </mxCell>
        <mxCell id="lRJhLhai7MYSxHj7oOno-94" style="shape=tableRow;horizontal=0;startSize=0;swimlaneHead=0;swimlaneBody=0;strokeColor=#000000;top=0;left=0;bottom=0;right=0;collapsible=0;dropTarget=0;fillColor=none;points=[[0,0.5],[1,0.5]];portConstraint=eastwest;fontSize=16;" vertex="1" parent="lRJhLhai7MYSxHj7oOno-81">
          <mxGeometry y="80" width="200" height="41" as="geometry" />
        </mxCell>
        <mxCell id="lRJhLhai7MYSxHj7oOno-95" style="shape=partialRectangle;html=1;whiteSpace=wrap;connectable=0;strokeColor=#000000;overflow=hidden;fillColor=none;top=0;left=0;bottom=0;right=0;pointerEvents=1;fontSize=16;" vertex="1" parent="lRJhLhai7MYSxHj7oOno-94">
          <mxGeometry width="39" height="41" as="geometry">
            <mxRectangle width="39" height="41" as="alternateBounds" />
          </mxGeometry>
        </mxCell>
        <mxCell id="lRJhLhai7MYSxHj7oOno-96" style="shape=partialRectangle;html=1;whiteSpace=wrap;connectable=0;strokeColor=#000000;overflow=hidden;fillColor=none;top=0;left=0;bottom=0;right=0;pointerEvents=1;fontSize=16;" vertex="1" parent="lRJhLhai7MYSxHj7oOno-94">
          <mxGeometry x="39" width="42" height="41" as="geometry">
            <mxRectangle width="42" height="41" as="alternateBounds" />
          </mxGeometry>
        </mxCell>
        <mxCell id="lRJhLhai7MYSxHj7oOno-97" style="shape=partialRectangle;html=1;whiteSpace=wrap;connectable=0;strokeColor=#000000;overflow=hidden;fillColor=none;top=0;left=0;bottom=0;right=0;pointerEvents=1;fontSize=16;" vertex="1" parent="lRJhLhai7MYSxHj7oOno-94">
          <mxGeometry x="81" width="41" height="41" as="geometry">
            <mxRectangle width="41" height="41" as="alternateBounds" />
          </mxGeometry>
        </mxCell>
        <mxCell id="lRJhLhai7MYSxHj7oOno-98" style="shape=partialRectangle;html=1;whiteSpace=wrap;connectable=0;strokeColor=#000000;overflow=hidden;fillColor=none;top=0;left=0;bottom=0;right=0;pointerEvents=1;fontSize=16;" vertex="1" parent="lRJhLhai7MYSxHj7oOno-94">
          <mxGeometry x="122" width="38" height="41" as="geometry">
            <mxRectangle width="38" height="41" as="alternateBounds" />
          </mxGeometry>
        </mxCell>
        <mxCell id="lRJhLhai7MYSxHj7oOno-99" style="shape=partialRectangle;html=1;whiteSpace=wrap;connectable=0;strokeColor=#000000;overflow=hidden;fillColor=none;top=0;left=0;bottom=0;right=0;pointerEvents=1;fontSize=16;" vertex="1" parent="lRJhLhai7MYSxHj7oOno-94">
          <mxGeometry x="160" width="40" height="41" as="geometry">
            <mxRectangle width="40" height="41" as="alternateBounds" />
          </mxGeometry>
        </mxCell>
        <mxCell id="lRJhLhai7MYSxHj7oOno-106" value="" style="shape=table;startSize=0;container=1;collapsible=0;childLayout=tableLayout;fontSize=16;direction=south;flipH=1;flipV=1;fillColor=#00FFFF;fontColor=#ffffff;strokeColor=#000000;" vertex="1" parent="1">
          <mxGeometry x="-920" y="439" width="200" height="121" as="geometry" />
        </mxCell>
        <mxCell id="lRJhLhai7MYSxHj7oOno-107" style="shape=tableRow;horizontal=0;startSize=0;swimlaneHead=0;swimlaneBody=0;strokeColor=#000000;top=0;left=0;bottom=0;right=0;collapsible=0;dropTarget=0;fillColor=none;points=[[0,0.5],[1,0.5]];portConstraint=eastwest;fontSize=16;" vertex="1" parent="lRJhLhai7MYSxHj7oOno-106">
          <mxGeometry width="200" height="40" as="geometry" />
        </mxCell>
        <mxCell id="lRJhLhai7MYSxHj7oOno-108" style="shape=partialRectangle;html=1;whiteSpace=wrap;connectable=0;strokeColor=#000000;overflow=hidden;fillColor=none;top=0;left=0;bottom=0;right=0;pointerEvents=1;fontSize=16;" vertex="1" parent="lRJhLhai7MYSxHj7oOno-107">
          <mxGeometry width="39" height="40" as="geometry">
            <mxRectangle width="39" height="40" as="alternateBounds" />
          </mxGeometry>
        </mxCell>
        <mxCell id="lRJhLhai7MYSxHj7oOno-109" style="shape=partialRectangle;html=1;whiteSpace=wrap;connectable=0;strokeColor=#000000;overflow=hidden;fillColor=none;top=0;left=0;bottom=0;right=0;pointerEvents=1;fontSize=16;" vertex="1" parent="lRJhLhai7MYSxHj7oOno-107">
          <mxGeometry x="39" width="42" height="40" as="geometry">
            <mxRectangle width="42" height="40" as="alternateBounds" />
          </mxGeometry>
        </mxCell>
        <mxCell id="lRJhLhai7MYSxHj7oOno-110" style="shape=partialRectangle;html=1;whiteSpace=wrap;connectable=0;strokeColor=#000000;overflow=hidden;fillColor=none;top=0;left=0;bottom=0;right=0;pointerEvents=1;fontSize=16;" vertex="1" parent="lRJhLhai7MYSxHj7oOno-107">
          <mxGeometry x="81" width="41" height="40" as="geometry">
            <mxRectangle width="41" height="40" as="alternateBounds" />
          </mxGeometry>
        </mxCell>
        <mxCell id="lRJhLhai7MYSxHj7oOno-111" style="shape=partialRectangle;html=1;whiteSpace=wrap;connectable=0;strokeColor=#000000;overflow=hidden;fillColor=none;top=0;left=0;bottom=0;right=0;pointerEvents=1;fontSize=16;" vertex="1" parent="lRJhLhai7MYSxHj7oOno-107">
          <mxGeometry x="122" width="38" height="40" as="geometry">
            <mxRectangle width="38" height="40" as="alternateBounds" />
          </mxGeometry>
        </mxCell>
        <mxCell id="lRJhLhai7MYSxHj7oOno-112" style="shape=partialRectangle;html=1;whiteSpace=wrap;connectable=0;strokeColor=#000000;overflow=hidden;fillColor=none;top=0;left=0;bottom=0;right=0;pointerEvents=1;fontSize=16;" vertex="1" parent="lRJhLhai7MYSxHj7oOno-107">
          <mxGeometry x="160" width="40" height="40" as="geometry">
            <mxRectangle width="40" height="40" as="alternateBounds" />
          </mxGeometry>
        </mxCell>
        <mxCell id="lRJhLhai7MYSxHj7oOno-113" style="shape=tableRow;horizontal=0;startSize=0;swimlaneHead=0;swimlaneBody=0;strokeColor=#000000;top=0;left=0;bottom=0;right=0;collapsible=0;dropTarget=0;fillColor=none;points=[[0,0.5],[1,0.5]];portConstraint=eastwest;fontSize=16;" vertex="1" parent="lRJhLhai7MYSxHj7oOno-106">
          <mxGeometry y="40" width="200" height="40" as="geometry" />
        </mxCell>
        <mxCell id="lRJhLhai7MYSxHj7oOno-114" style="shape=partialRectangle;html=1;whiteSpace=wrap;connectable=0;strokeColor=#000000;overflow=hidden;fillColor=none;top=0;left=0;bottom=0;right=0;pointerEvents=1;fontSize=16;" vertex="1" parent="lRJhLhai7MYSxHj7oOno-113">
          <mxGeometry width="39" height="40" as="geometry">
            <mxRectangle width="39" height="40" as="alternateBounds" />
          </mxGeometry>
        </mxCell>
        <mxCell id="lRJhLhai7MYSxHj7oOno-115" style="shape=partialRectangle;html=1;whiteSpace=wrap;connectable=0;strokeColor=#000000;overflow=hidden;fillColor=none;top=0;left=0;bottom=0;right=0;pointerEvents=1;fontSize=16;" vertex="1" parent="lRJhLhai7MYSxHj7oOno-113">
          <mxGeometry x="39" width="42" height="40" as="geometry">
            <mxRectangle width="42" height="40" as="alternateBounds" />
          </mxGeometry>
        </mxCell>
        <mxCell id="lRJhLhai7MYSxHj7oOno-116" style="shape=partialRectangle;html=1;whiteSpace=wrap;connectable=0;strokeColor=#000000;overflow=hidden;fillColor=none;top=0;left=0;bottom=0;right=0;pointerEvents=1;fontSize=16;" vertex="1" parent="lRJhLhai7MYSxHj7oOno-113">
          <mxGeometry x="81" width="41" height="40" as="geometry">
            <mxRectangle width="41" height="40" as="alternateBounds" />
          </mxGeometry>
        </mxCell>
        <mxCell id="lRJhLhai7MYSxHj7oOno-117" style="shape=partialRectangle;html=1;whiteSpace=wrap;connectable=0;strokeColor=#000000;overflow=hidden;fillColor=none;top=0;left=0;bottom=0;right=0;pointerEvents=1;fontSize=16;" vertex="1" parent="lRJhLhai7MYSxHj7oOno-113">
          <mxGeometry x="122" width="38" height="40" as="geometry">
            <mxRectangle width="38" height="40" as="alternateBounds" />
          </mxGeometry>
        </mxCell>
        <mxCell id="lRJhLhai7MYSxHj7oOno-118" style="shape=partialRectangle;html=1;whiteSpace=wrap;connectable=0;strokeColor=#000000;overflow=hidden;fillColor=none;top=0;left=0;bottom=0;right=0;pointerEvents=1;fontSize=16;" vertex="1" parent="lRJhLhai7MYSxHj7oOno-113">
          <mxGeometry x="160" width="40" height="40" as="geometry">
            <mxRectangle width="40" height="40" as="alternateBounds" />
          </mxGeometry>
        </mxCell>
        <mxCell id="lRJhLhai7MYSxHj7oOno-119" style="shape=tableRow;horizontal=0;startSize=0;swimlaneHead=0;swimlaneBody=0;strokeColor=#000000;top=0;left=0;bottom=0;right=0;collapsible=0;dropTarget=0;fillColor=none;points=[[0,0.5],[1,0.5]];portConstraint=eastwest;fontSize=16;" vertex="1" parent="lRJhLhai7MYSxHj7oOno-106">
          <mxGeometry y="80" width="200" height="41" as="geometry" />
        </mxCell>
        <mxCell id="lRJhLhai7MYSxHj7oOno-120" style="shape=partialRectangle;html=1;whiteSpace=wrap;connectable=0;strokeColor=#000000;overflow=hidden;fillColor=none;top=0;left=0;bottom=0;right=0;pointerEvents=1;fontSize=16;" vertex="1" parent="lRJhLhai7MYSxHj7oOno-119">
          <mxGeometry width="39" height="41" as="geometry">
            <mxRectangle width="39" height="41" as="alternateBounds" />
          </mxGeometry>
        </mxCell>
        <mxCell id="lRJhLhai7MYSxHj7oOno-121" style="shape=partialRectangle;html=1;whiteSpace=wrap;connectable=0;strokeColor=#000000;overflow=hidden;fillColor=none;top=0;left=0;bottom=0;right=0;pointerEvents=1;fontSize=16;" vertex="1" parent="lRJhLhai7MYSxHj7oOno-119">
          <mxGeometry x="39" width="42" height="41" as="geometry">
            <mxRectangle width="42" height="41" as="alternateBounds" />
          </mxGeometry>
        </mxCell>
        <mxCell id="lRJhLhai7MYSxHj7oOno-122" style="shape=partialRectangle;html=1;whiteSpace=wrap;connectable=0;strokeColor=#000000;overflow=hidden;fillColor=none;top=0;left=0;bottom=0;right=0;pointerEvents=1;fontSize=16;" vertex="1" parent="lRJhLhai7MYSxHj7oOno-119">
          <mxGeometry x="81" width="41" height="41" as="geometry">
            <mxRectangle width="41" height="41" as="alternateBounds" />
          </mxGeometry>
        </mxCell>
        <mxCell id="lRJhLhai7MYSxHj7oOno-123" style="shape=partialRectangle;html=1;whiteSpace=wrap;connectable=0;strokeColor=#000000;overflow=hidden;fillColor=none;top=0;left=0;bottom=0;right=0;pointerEvents=1;fontSize=16;" vertex="1" parent="lRJhLhai7MYSxHj7oOno-119">
          <mxGeometry x="122" width="38" height="41" as="geometry">
            <mxRectangle width="38" height="41" as="alternateBounds" />
          </mxGeometry>
        </mxCell>
        <mxCell id="lRJhLhai7MYSxHj7oOno-124" style="shape=partialRectangle;html=1;whiteSpace=wrap;connectable=0;strokeColor=#000000;overflow=hidden;fillColor=none;top=0;left=0;bottom=0;right=0;pointerEvents=1;fontSize=16;" vertex="1" parent="lRJhLhai7MYSxHj7oOno-119">
          <mxGeometry x="160" width="40" height="41" as="geometry">
            <mxRectangle width="40" height="41" as="alternateBounds" />
          </mxGeometry>
        </mxCell>
        <mxCell id="lRJhLhai7MYSxHj7oOno-125" value="" style="shape=table;startSize=0;container=1;collapsible=0;childLayout=tableLayout;fontSize=16;direction=south;flipH=1;flipV=1;fillColor=#33FF33;fontColor=#ffffff;strokeColor=#000000;" vertex="1" parent="1">
          <mxGeometry x="-920" y="601" width="200" height="80" as="geometry" />
        </mxCell>
        <mxCell id="lRJhLhai7MYSxHj7oOno-126" style="shape=tableRow;horizontal=0;startSize=0;swimlaneHead=0;swimlaneBody=0;strokeColor=#000000;top=0;left=0;bottom=0;right=0;collapsible=0;dropTarget=0;fillColor=none;points=[[0,0.5],[1,0.5]];portConstraint=eastwest;fontSize=16;" vertex="1" parent="lRJhLhai7MYSxHj7oOno-125">
          <mxGeometry width="200" height="40" as="geometry" />
        </mxCell>
        <mxCell id="lRJhLhai7MYSxHj7oOno-127" style="shape=partialRectangle;html=1;whiteSpace=wrap;connectable=0;strokeColor=#000000;overflow=hidden;fillColor=none;top=0;left=0;bottom=0;right=0;pointerEvents=1;fontSize=16;" vertex="1" parent="lRJhLhai7MYSxHj7oOno-126">
          <mxGeometry width="39" height="40" as="geometry">
            <mxRectangle width="39" height="40" as="alternateBounds" />
          </mxGeometry>
        </mxCell>
        <mxCell id="lRJhLhai7MYSxHj7oOno-128" style="shape=partialRectangle;html=1;whiteSpace=wrap;connectable=0;strokeColor=#000000;overflow=hidden;fillColor=none;top=0;left=0;bottom=0;right=0;pointerEvents=1;fontSize=16;" vertex="1" parent="lRJhLhai7MYSxHj7oOno-126">
          <mxGeometry x="39" width="42" height="40" as="geometry">
            <mxRectangle width="42" height="40" as="alternateBounds" />
          </mxGeometry>
        </mxCell>
        <mxCell id="lRJhLhai7MYSxHj7oOno-129" style="shape=partialRectangle;html=1;whiteSpace=wrap;connectable=0;strokeColor=#000000;overflow=hidden;fillColor=none;top=0;left=0;bottom=0;right=0;pointerEvents=1;fontSize=16;" vertex="1" parent="lRJhLhai7MYSxHj7oOno-126">
          <mxGeometry x="81" width="41" height="40" as="geometry">
            <mxRectangle width="41" height="40" as="alternateBounds" />
          </mxGeometry>
        </mxCell>
        <mxCell id="lRJhLhai7MYSxHj7oOno-130" style="shape=partialRectangle;html=1;whiteSpace=wrap;connectable=0;strokeColor=#000000;overflow=hidden;fillColor=none;top=0;left=0;bottom=0;right=0;pointerEvents=1;fontSize=16;" vertex="1" parent="lRJhLhai7MYSxHj7oOno-126">
          <mxGeometry x="122" width="38" height="40" as="geometry">
            <mxRectangle width="38" height="40" as="alternateBounds" />
          </mxGeometry>
        </mxCell>
        <mxCell id="lRJhLhai7MYSxHj7oOno-131" style="shape=partialRectangle;html=1;whiteSpace=wrap;connectable=0;strokeColor=#000000;overflow=hidden;fillColor=none;top=0;left=0;bottom=0;right=0;pointerEvents=1;fontSize=16;" vertex="1" parent="lRJhLhai7MYSxHj7oOno-126">
          <mxGeometry x="160" width="40" height="40" as="geometry">
            <mxRectangle width="40" height="40" as="alternateBounds" />
          </mxGeometry>
        </mxCell>
        <mxCell id="lRJhLhai7MYSxHj7oOno-132" style="shape=tableRow;horizontal=0;startSize=0;swimlaneHead=0;swimlaneBody=0;strokeColor=#000000;top=0;left=0;bottom=0;right=0;collapsible=0;dropTarget=0;fillColor=none;points=[[0,0.5],[1,0.5]];portConstraint=eastwest;fontSize=16;" vertex="1" parent="lRJhLhai7MYSxHj7oOno-125">
          <mxGeometry y="40" width="200" height="40" as="geometry" />
        </mxCell>
        <mxCell id="lRJhLhai7MYSxHj7oOno-133" style="shape=partialRectangle;html=1;whiteSpace=wrap;connectable=0;strokeColor=#000000;overflow=hidden;fillColor=none;top=0;left=0;bottom=0;right=0;pointerEvents=1;fontSize=16;" vertex="1" parent="lRJhLhai7MYSxHj7oOno-132">
          <mxGeometry width="39" height="40" as="geometry">
            <mxRectangle width="39" height="40" as="alternateBounds" />
          </mxGeometry>
        </mxCell>
        <mxCell id="lRJhLhai7MYSxHj7oOno-134" style="shape=partialRectangle;html=1;whiteSpace=wrap;connectable=0;strokeColor=#000000;overflow=hidden;fillColor=none;top=0;left=0;bottom=0;right=0;pointerEvents=1;fontSize=16;" vertex="1" parent="lRJhLhai7MYSxHj7oOno-132">
          <mxGeometry x="39" width="42" height="40" as="geometry">
            <mxRectangle width="42" height="40" as="alternateBounds" />
          </mxGeometry>
        </mxCell>
        <mxCell id="lRJhLhai7MYSxHj7oOno-135" style="shape=partialRectangle;html=1;whiteSpace=wrap;connectable=0;strokeColor=#000000;overflow=hidden;fillColor=none;top=0;left=0;bottom=0;right=0;pointerEvents=1;fontSize=16;" vertex="1" parent="lRJhLhai7MYSxHj7oOno-132">
          <mxGeometry x="81" width="41" height="40" as="geometry">
            <mxRectangle width="41" height="40" as="alternateBounds" />
          </mxGeometry>
        </mxCell>
        <mxCell id="lRJhLhai7MYSxHj7oOno-136" style="shape=partialRectangle;html=1;whiteSpace=wrap;connectable=0;strokeColor=#000000;overflow=hidden;fillColor=none;top=0;left=0;bottom=0;right=0;pointerEvents=1;fontSize=16;" vertex="1" parent="lRJhLhai7MYSxHj7oOno-132">
          <mxGeometry x="122" width="38" height="40" as="geometry">
            <mxRectangle width="38" height="40" as="alternateBounds" />
          </mxGeometry>
        </mxCell>
        <mxCell id="lRJhLhai7MYSxHj7oOno-137" style="shape=partialRectangle;html=1;whiteSpace=wrap;connectable=0;strokeColor=#000000;overflow=hidden;fillColor=none;top=0;left=0;bottom=0;right=0;pointerEvents=1;fontSize=16;" vertex="1" parent="lRJhLhai7MYSxHj7oOno-132">
          <mxGeometry x="160" width="40" height="40" as="geometry">
            <mxRectangle width="40" height="40" as="alternateBounds" />
          </mxGeometry>
        </mxCell>
        <mxCell id="lRJhLhai7MYSxHj7oOno-144" value="" style="shape=table;startSize=0;container=1;collapsible=0;childLayout=tableLayout;fontSize=16;direction=south;flipH=1;flipV=1;fillColor=#FFFF33;fontColor=#ffffff;strokeColor=#000000;" vertex="1" parent="1">
          <mxGeometry x="-920" y="720" width="200" height="80" as="geometry" />
        </mxCell>
        <mxCell id="lRJhLhai7MYSxHj7oOno-145" style="shape=tableRow;horizontal=0;startSize=0;swimlaneHead=0;swimlaneBody=0;strokeColor=#000000;top=0;left=0;bottom=0;right=0;collapsible=0;dropTarget=0;fillColor=none;points=[[0,0.5],[1,0.5]];portConstraint=eastwest;fontSize=16;" vertex="1" parent="lRJhLhai7MYSxHj7oOno-144">
          <mxGeometry width="200" height="40" as="geometry" />
        </mxCell>
        <mxCell id="lRJhLhai7MYSxHj7oOno-146" style="shape=partialRectangle;html=1;whiteSpace=wrap;connectable=0;strokeColor=#000000;overflow=hidden;fillColor=none;top=0;left=0;bottom=0;right=0;pointerEvents=1;fontSize=16;" vertex="1" parent="lRJhLhai7MYSxHj7oOno-145">
          <mxGeometry width="39" height="40" as="geometry">
            <mxRectangle width="39" height="40" as="alternateBounds" />
          </mxGeometry>
        </mxCell>
        <mxCell id="lRJhLhai7MYSxHj7oOno-147" style="shape=partialRectangle;html=1;whiteSpace=wrap;connectable=0;strokeColor=#000000;overflow=hidden;fillColor=none;top=0;left=0;bottom=0;right=0;pointerEvents=1;fontSize=16;" vertex="1" parent="lRJhLhai7MYSxHj7oOno-145">
          <mxGeometry x="39" width="42" height="40" as="geometry">
            <mxRectangle width="42" height="40" as="alternateBounds" />
          </mxGeometry>
        </mxCell>
        <mxCell id="lRJhLhai7MYSxHj7oOno-148" style="shape=partialRectangle;html=1;whiteSpace=wrap;connectable=0;strokeColor=#000000;overflow=hidden;fillColor=none;top=0;left=0;bottom=0;right=0;pointerEvents=1;fontSize=16;" vertex="1" parent="lRJhLhai7MYSxHj7oOno-145">
          <mxGeometry x="81" width="41" height="40" as="geometry">
            <mxRectangle width="41" height="40" as="alternateBounds" />
          </mxGeometry>
        </mxCell>
        <mxCell id="lRJhLhai7MYSxHj7oOno-149" style="shape=partialRectangle;html=1;whiteSpace=wrap;connectable=0;strokeColor=#000000;overflow=hidden;fillColor=none;top=0;left=0;bottom=0;right=0;pointerEvents=1;fontSize=16;" vertex="1" parent="lRJhLhai7MYSxHj7oOno-145">
          <mxGeometry x="122" width="38" height="40" as="geometry">
            <mxRectangle width="38" height="40" as="alternateBounds" />
          </mxGeometry>
        </mxCell>
        <mxCell id="lRJhLhai7MYSxHj7oOno-150" style="shape=partialRectangle;html=1;whiteSpace=wrap;connectable=0;strokeColor=#000000;overflow=hidden;fillColor=none;top=0;left=0;bottom=0;right=0;pointerEvents=1;fontSize=16;" vertex="1" parent="lRJhLhai7MYSxHj7oOno-145">
          <mxGeometry x="160" width="40" height="40" as="geometry">
            <mxRectangle width="40" height="40" as="alternateBounds" />
          </mxGeometry>
        </mxCell>
        <mxCell id="lRJhLhai7MYSxHj7oOno-151" style="shape=tableRow;horizontal=0;startSize=0;swimlaneHead=0;swimlaneBody=0;strokeColor=#000000;top=0;left=0;bottom=0;right=0;collapsible=0;dropTarget=0;fillColor=none;points=[[0,0.5],[1,0.5]];portConstraint=eastwest;fontSize=16;" vertex="1" parent="lRJhLhai7MYSxHj7oOno-144">
          <mxGeometry y="40" width="200" height="40" as="geometry" />
        </mxCell>
        <mxCell id="lRJhLhai7MYSxHj7oOno-152" style="shape=partialRectangle;html=1;whiteSpace=wrap;connectable=0;strokeColor=#000000;overflow=hidden;fillColor=none;top=0;left=0;bottom=0;right=0;pointerEvents=1;fontSize=16;" vertex="1" parent="lRJhLhai7MYSxHj7oOno-151">
          <mxGeometry width="39" height="40" as="geometry">
            <mxRectangle width="39" height="40" as="alternateBounds" />
          </mxGeometry>
        </mxCell>
        <mxCell id="lRJhLhai7MYSxHj7oOno-153" style="shape=partialRectangle;html=1;whiteSpace=wrap;connectable=0;strokeColor=#000000;overflow=hidden;fillColor=none;top=0;left=0;bottom=0;right=0;pointerEvents=1;fontSize=16;" vertex="1" parent="lRJhLhai7MYSxHj7oOno-151">
          <mxGeometry x="39" width="42" height="40" as="geometry">
            <mxRectangle width="42" height="40" as="alternateBounds" />
          </mxGeometry>
        </mxCell>
        <mxCell id="lRJhLhai7MYSxHj7oOno-154" style="shape=partialRectangle;html=1;whiteSpace=wrap;connectable=0;strokeColor=#000000;overflow=hidden;fillColor=none;top=0;left=0;bottom=0;right=0;pointerEvents=1;fontSize=16;" vertex="1" parent="lRJhLhai7MYSxHj7oOno-151">
          <mxGeometry x="81" width="41" height="40" as="geometry">
            <mxRectangle width="41" height="40" as="alternateBounds" />
          </mxGeometry>
        </mxCell>
        <mxCell id="lRJhLhai7MYSxHj7oOno-155" style="shape=partialRectangle;html=1;whiteSpace=wrap;connectable=0;strokeColor=#000000;overflow=hidden;fillColor=none;top=0;left=0;bottom=0;right=0;pointerEvents=1;fontSize=16;" vertex="1" parent="lRJhLhai7MYSxHj7oOno-151">
          <mxGeometry x="122" width="38" height="40" as="geometry">
            <mxRectangle width="38" height="40" as="alternateBounds" />
          </mxGeometry>
        </mxCell>
        <mxCell id="lRJhLhai7MYSxHj7oOno-156" style="shape=partialRectangle;html=1;whiteSpace=wrap;connectable=0;strokeColor=#000000;overflow=hidden;fillColor=none;top=0;left=0;bottom=0;right=0;pointerEvents=1;fontSize=16;" vertex="1" parent="lRJhLhai7MYSxHj7oOno-151">
          <mxGeometry x="160" width="40" height="40" as="geometry">
            <mxRectangle width="40" height="40" as="alternateBounds" />
          </mxGeometry>
        </mxCell>
        <mxCell id="lRJhLhai7MYSxHj7oOno-157" value="" style="endArrow=none;html=1;rounded=0;" edge="1" parent="1">
          <mxGeometry width="50" height="50" relative="1" as="geometry">
            <mxPoint x="-1000" y="180" as="sourcePoint" />
            <mxPoint x="-930" y="-123.52941176470588" as="targetPoint" />
          </mxGeometry>
        </mxCell>
        <mxCell id="lRJhLhai7MYSxHj7oOno-158" value="" style="endArrow=none;html=1;rounded=0;" edge="1" parent="1">
          <mxGeometry width="50" height="50" relative="1" as="geometry">
            <mxPoint x="-1000" y="490" as="sourcePoint" />
            <mxPoint x="-930" y="800" as="targetPoint" />
          </mxGeometry>
        </mxCell>
        <mxCell id="lRJhLhai7MYSxHj7oOno-161" value="" style="endArrow=classic;html=1;rounded=0;" edge="1" parent="1">
          <mxGeometry width="50" height="50" relative="1" as="geometry">
            <mxPoint x="-710" y="-40" as="sourcePoint" />
            <mxPoint x="-650" y="-40" as="targetPoint" />
          </mxGeometry>
        </mxCell>
        <mxCell id="lRJhLhai7MYSxHj7oOno-162" value="" style="endArrow=classic;html=1;rounded=0;" edge="1" parent="1">
          <mxGeometry width="50" height="50" relative="1" as="geometry">
            <mxPoint x="-700" y="160" as="sourcePoint" />
            <mxPoint x="-590" y="160" as="targetPoint" />
          </mxGeometry>
        </mxCell>
        <mxCell id="lRJhLhai7MYSxHj7oOno-163" value="" style="endArrow=classic;html=1;rounded=0;" edge="1" parent="1">
          <mxGeometry width="50" height="50" relative="1" as="geometry">
            <mxPoint x="-700" y="479.5" as="sourcePoint" />
            <mxPoint x="-590" y="479.5" as="targetPoint" />
          </mxGeometry>
        </mxCell>
        <mxCell id="lRJhLhai7MYSxHj7oOno-164" value="" style="endArrow=classic;html=1;rounded=0;" edge="1" parent="1">
          <mxGeometry width="50" height="50" relative="1" as="geometry">
            <mxPoint x="-710" y="320" as="sourcePoint" />
            <mxPoint x="-650" y="320" as="targetPoint" />
          </mxGeometry>
        </mxCell>
        <mxCell id="lRJhLhai7MYSxHj7oOno-165" value="" style="endArrow=classic;html=1;rounded=0;" edge="1" parent="1">
          <mxGeometry width="50" height="50" relative="1" as="geometry">
            <mxPoint x="-710" y="640.5" as="sourcePoint" />
            <mxPoint x="-650" y="640.5" as="targetPoint" />
          </mxGeometry>
        </mxCell>
        <mxCell id="lRJhLhai7MYSxHj7oOno-166" value="" style="endArrow=classic;html=1;rounded=0;" edge="1" parent="1">
          <mxGeometry width="50" height="50" relative="1" as="geometry">
            <mxPoint x="-703" y="759.5" as="sourcePoint" />
            <mxPoint x="-593" y="759.5" as="targetPoint" />
          </mxGeometry>
        </mxCell>
        <mxCell id="lRJhLhai7MYSxHj7oOno-171" value="" style="shape=table;startSize=0;container=1;collapsible=0;childLayout=tableLayout;fontSize=16;direction=south;flipH=1;flipV=1;fillColor=#FFFF33;fontColor=#ffffff;strokeColor=#000000;strokeWidth=1;" vertex="1" parent="1">
          <mxGeometry x="-576" y="630" width="39" height="244" as="geometry" />
        </mxCell>
        <mxCell id="lRJhLhai7MYSxHj7oOno-172" style="shape=tableRow;horizontal=0;startSize=0;swimlaneHead=0;swimlaneBody=0;strokeColor=#000000;top=0;left=0;bottom=0;right=0;collapsible=0;dropTarget=0;fillColor=none;points=[[0,0.5],[1,0.5]];portConstraint=eastwest;fontSize=16;" vertex="1" parent="lRJhLhai7MYSxHj7oOno-171">
          <mxGeometry width="39" height="40" as="geometry" />
        </mxCell>
        <mxCell id="lRJhLhai7MYSxHj7oOno-173" style="shape=partialRectangle;html=1;whiteSpace=wrap;connectable=0;strokeColor=#000000;overflow=hidden;fillColor=none;top=0;left=0;bottom=0;right=0;pointerEvents=1;fontSize=16;" vertex="1" parent="lRJhLhai7MYSxHj7oOno-172">
          <mxGeometry width="39" height="40" as="geometry">
            <mxRectangle width="39" height="40" as="alternateBounds" />
          </mxGeometry>
        </mxCell>
        <mxCell id="lRJhLhai7MYSxHj7oOno-174" style="shape=tableRow;horizontal=0;startSize=0;swimlaneHead=0;swimlaneBody=0;strokeColor=#000000;top=0;left=0;bottom=0;right=0;collapsible=0;dropTarget=0;fillColor=none;points=[[0,0.5],[1,0.5]];portConstraint=eastwest;fontSize=16;" vertex="1" parent="lRJhLhai7MYSxHj7oOno-171">
          <mxGeometry y="40" width="39" height="40" as="geometry" />
        </mxCell>
        <mxCell id="lRJhLhai7MYSxHj7oOno-175" style="shape=partialRectangle;html=1;whiteSpace=wrap;connectable=0;strokeColor=#000000;overflow=hidden;fillColor=none;top=0;left=0;bottom=0;right=0;pointerEvents=1;fontSize=16;" vertex="1" parent="lRJhLhai7MYSxHj7oOno-174">
          <mxGeometry width="39" height="40" as="geometry">
            <mxRectangle width="39" height="40" as="alternateBounds" />
          </mxGeometry>
        </mxCell>
        <mxCell id="lRJhLhai7MYSxHj7oOno-176" style="shape=tableRow;horizontal=0;startSize=0;swimlaneHead=0;swimlaneBody=0;strokeColor=#000000;top=0;left=0;bottom=0;right=0;collapsible=0;dropTarget=0;fillColor=none;points=[[0,0.5],[1,0.5]];portConstraint=eastwest;fontSize=16;" vertex="1" parent="lRJhLhai7MYSxHj7oOno-171">
          <mxGeometry y="80" width="39" height="41" as="geometry" />
        </mxCell>
        <mxCell id="lRJhLhai7MYSxHj7oOno-177" style="shape=partialRectangle;html=1;whiteSpace=wrap;connectable=0;strokeColor=#000000;overflow=hidden;fillColor=none;top=0;left=0;bottom=0;right=0;pointerEvents=1;fontSize=16;" vertex="1" parent="lRJhLhai7MYSxHj7oOno-176">
          <mxGeometry width="39" height="41" as="geometry">
            <mxRectangle width="39" height="41" as="alternateBounds" />
          </mxGeometry>
        </mxCell>
        <mxCell id="lRJhLhai7MYSxHj7oOno-178" style="shape=tableRow;horizontal=0;startSize=0;swimlaneHead=0;swimlaneBody=0;strokeColor=#000000;top=0;left=0;bottom=0;right=0;collapsible=0;dropTarget=0;fillColor=none;points=[[0,0.5],[1,0.5]];portConstraint=eastwest;fontSize=16;" vertex="1" parent="lRJhLhai7MYSxHj7oOno-171">
          <mxGeometry y="121" width="39" height="41" as="geometry" />
        </mxCell>
        <mxCell id="lRJhLhai7MYSxHj7oOno-179" style="shape=partialRectangle;html=1;whiteSpace=wrap;connectable=0;strokeColor=#000000;overflow=hidden;fillColor=none;top=0;left=0;bottom=0;right=0;pointerEvents=1;fontSize=16;" vertex="1" parent="lRJhLhai7MYSxHj7oOno-178">
          <mxGeometry width="39" height="41" as="geometry">
            <mxRectangle width="39" height="41" as="alternateBounds" />
          </mxGeometry>
        </mxCell>
        <mxCell id="lRJhLhai7MYSxHj7oOno-180" style="shape=tableRow;horizontal=0;startSize=0;swimlaneHead=0;swimlaneBody=0;strokeColor=#000000;top=0;left=0;bottom=0;right=0;collapsible=0;dropTarget=0;fillColor=none;points=[[0,0.5],[1,0.5]];portConstraint=eastwest;fontSize=16;" vertex="1" parent="lRJhLhai7MYSxHj7oOno-171">
          <mxGeometry y="162" width="39" height="41" as="geometry" />
        </mxCell>
        <mxCell id="lRJhLhai7MYSxHj7oOno-181" style="shape=partialRectangle;html=1;whiteSpace=wrap;connectable=0;strokeColor=#000000;overflow=hidden;fillColor=none;top=0;left=0;bottom=0;right=0;pointerEvents=1;fontSize=16;" vertex="1" parent="lRJhLhai7MYSxHj7oOno-180">
          <mxGeometry width="39" height="41" as="geometry">
            <mxRectangle width="39" height="41" as="alternateBounds" />
          </mxGeometry>
        </mxCell>
        <mxCell id="lRJhLhai7MYSxHj7oOno-182" style="shape=tableRow;horizontal=0;startSize=0;swimlaneHead=0;swimlaneBody=0;strokeColor=#000000;top=0;left=0;bottom=0;right=0;collapsible=0;dropTarget=0;fillColor=none;points=[[0,0.5],[1,0.5]];portConstraint=eastwest;fontSize=16;" vertex="1" parent="lRJhLhai7MYSxHj7oOno-171">
          <mxGeometry y="203" width="39" height="41" as="geometry" />
        </mxCell>
        <mxCell id="lRJhLhai7MYSxHj7oOno-183" style="shape=partialRectangle;html=1;whiteSpace=wrap;connectable=0;strokeColor=#000000;overflow=hidden;fillColor=none;top=0;left=0;bottom=0;right=0;pointerEvents=1;fontSize=16;" vertex="1" parent="lRJhLhai7MYSxHj7oOno-182">
          <mxGeometry width="39" height="41" as="geometry">
            <mxRectangle width="39" height="41" as="alternateBounds" />
          </mxGeometry>
        </mxCell>
        <mxCell id="lRJhLhai7MYSxHj7oOno-186" value="" style="shape=table;startSize=0;container=1;collapsible=0;childLayout=tableLayout;fontSize=16;direction=south;flipH=1;flipV=1;fillColor=#FF33FF;fontColor=#ffffff;strokeColor=#000000;strokeWidth=1;" vertex="1" parent="1">
          <mxGeometry x="-520" y="1" width="39" height="40" as="geometry" />
        </mxCell>
        <mxCell id="lRJhLhai7MYSxHj7oOno-187" style="shape=tableRow;horizontal=0;startSize=0;swimlaneHead=0;swimlaneBody=0;strokeColor=#000000;top=0;left=0;bottom=0;right=0;collapsible=0;dropTarget=0;fillColor=none;points=[[0,0.5],[1,0.5]];portConstraint=eastwest;fontSize=16;" vertex="1" parent="lRJhLhai7MYSxHj7oOno-186">
          <mxGeometry width="39" height="40" as="geometry" />
        </mxCell>
        <mxCell id="lRJhLhai7MYSxHj7oOno-188" style="shape=partialRectangle;html=1;whiteSpace=wrap;connectable=0;strokeColor=#000000;overflow=hidden;fillColor=none;top=0;left=0;bottom=0;right=0;pointerEvents=1;fontSize=16;" vertex="1" parent="lRJhLhai7MYSxHj7oOno-187">
          <mxGeometry width="39" height="40" as="geometry">
            <mxRectangle width="39" height="40" as="alternateBounds" />
          </mxGeometry>
        </mxCell>
        <mxCell id="lRJhLhai7MYSxHj7oOno-189" value="" style="endArrow=classic;html=1;rounded=0;" edge="1" parent="1">
          <mxGeometry width="50" height="50" relative="1" as="geometry">
            <mxPoint x="-590" y="-60" as="sourcePoint" />
            <mxPoint x="-530" y="-20" as="targetPoint" />
          </mxGeometry>
        </mxCell>
        <mxCell id="lRJhLhai7MYSxHj7oOno-190" value="" style="endArrow=classic;html=1;rounded=0;" edge="1" parent="1">
          <mxGeometry width="50" height="50" relative="1" as="geometry">
            <mxPoint x="-530" y="98" as="sourcePoint" />
            <mxPoint x="-500" y="50" as="targetPoint" />
          </mxGeometry>
        </mxCell>
        <mxCell id="lRJhLhai7MYSxHj7oOno-191" value="" style="shape=table;startSize=0;container=1;collapsible=0;childLayout=tableLayout;fontSize=16;direction=south;flipH=1;flipV=1;fillColor=#3399FF;fontColor=#ffffff;strokeColor=#000000;strokeWidth=1;" vertex="1" parent="1">
          <mxGeometry x="-510" y="272" width="39" height="40" as="geometry" />
        </mxCell>
        <mxCell id="lRJhLhai7MYSxHj7oOno-192" style="shape=tableRow;horizontal=0;startSize=0;swimlaneHead=0;swimlaneBody=0;strokeColor=#000000;top=0;left=0;bottom=0;right=0;collapsible=0;dropTarget=0;fillColor=none;points=[[0,0.5],[1,0.5]];portConstraint=eastwest;fontSize=16;" vertex="1" parent="lRJhLhai7MYSxHj7oOno-191">
          <mxGeometry width="39" height="40" as="geometry" />
        </mxCell>
        <mxCell id="lRJhLhai7MYSxHj7oOno-193" style="shape=partialRectangle;html=1;whiteSpace=wrap;connectable=0;strokeColor=#000000;overflow=hidden;fillColor=none;top=0;left=0;bottom=0;right=0;pointerEvents=1;fontSize=16;" vertex="1" parent="lRJhLhai7MYSxHj7oOno-192">
          <mxGeometry width="39" height="40" as="geometry">
            <mxRectangle width="39" height="40" as="alternateBounds" />
          </mxGeometry>
        </mxCell>
        <mxCell id="lRJhLhai7MYSxHj7oOno-194" value="" style="shape=table;startSize=0;container=1;collapsible=0;childLayout=tableLayout;fontSize=16;direction=south;flipH=1;flipV=1;fillColor=#00FFFF;fontColor=#ffffff;strokeColor=#000000;strokeWidth=1;" vertex="1" parent="1">
          <mxGeometry x="-510" y="312" width="39" height="40" as="geometry" />
        </mxCell>
        <mxCell id="lRJhLhai7MYSxHj7oOno-195" style="shape=tableRow;horizontal=0;startSize=0;swimlaneHead=0;swimlaneBody=0;strokeColor=#000000;top=0;left=0;bottom=0;right=0;collapsible=0;dropTarget=0;fillColor=none;points=[[0,0.5],[1,0.5]];portConstraint=eastwest;fontSize=16;" vertex="1" parent="lRJhLhai7MYSxHj7oOno-194">
          <mxGeometry width="39" height="40" as="geometry" />
        </mxCell>
        <mxCell id="lRJhLhai7MYSxHj7oOno-196" style="shape=partialRectangle;html=1;whiteSpace=wrap;connectable=0;strokeColor=#000000;overflow=hidden;fillColor=none;top=0;left=0;bottom=0;right=0;pointerEvents=1;fontSize=16;" vertex="1" parent="lRJhLhai7MYSxHj7oOno-195">
          <mxGeometry width="39" height="40" as="geometry">
            <mxRectangle width="39" height="40" as="alternateBounds" />
          </mxGeometry>
        </mxCell>
        <mxCell id="lRJhLhai7MYSxHj7oOno-197" value="" style="endArrow=classic;html=1;rounded=0;" edge="1" parent="1">
          <mxGeometry width="50" height="50" relative="1" as="geometry">
            <mxPoint x="-590" y="300" as="sourcePoint" />
            <mxPoint x="-520" y="300" as="targetPoint" />
          </mxGeometry>
        </mxCell>
        <mxCell id="lRJhLhai7MYSxHj7oOno-198" value="" style="endArrow=classic;html=1;rounded=0;" edge="1" parent="1">
          <mxGeometry width="50" height="50" relative="1" as="geometry">
            <mxPoint x="-520" y="510" as="sourcePoint" />
            <mxPoint x="-490" y="358" as="targetPoint" />
          </mxGeometry>
        </mxCell>
        <mxCell id="lRJhLhai7MYSxHj7oOno-199" value="" style="shape=table;startSize=0;container=1;collapsible=0;childLayout=tableLayout;fontSize=16;direction=south;flipH=1;flipV=1;fillColor=#33FF33;fontColor=#ffffff;strokeColor=#000000;strokeWidth=1;" vertex="1" parent="1">
          <mxGeometry x="-490" y="601" width="39" height="40" as="geometry" />
        </mxCell>
        <mxCell id="lRJhLhai7MYSxHj7oOno-200" style="shape=tableRow;horizontal=0;startSize=0;swimlaneHead=0;swimlaneBody=0;strokeColor=#000000;top=0;left=0;bottom=0;right=0;collapsible=0;dropTarget=0;fillColor=none;points=[[0,0.5],[1,0.5]];portConstraint=eastwest;fontSize=16;" vertex="1" parent="lRJhLhai7MYSxHj7oOno-199">
          <mxGeometry width="39" height="40" as="geometry" />
        </mxCell>
        <mxCell id="lRJhLhai7MYSxHj7oOno-201" style="shape=partialRectangle;html=1;whiteSpace=wrap;connectable=0;strokeColor=#000000;overflow=hidden;fillColor=none;top=0;left=0;bottom=0;right=0;pointerEvents=1;fontSize=16;" vertex="1" parent="lRJhLhai7MYSxHj7oOno-200">
          <mxGeometry width="39" height="40" as="geometry">
            <mxRectangle width="39" height="40" as="alternateBounds" />
          </mxGeometry>
        </mxCell>
        <mxCell id="lRJhLhai7MYSxHj7oOno-202" value="" style="shape=table;startSize=0;container=1;collapsible=0;childLayout=tableLayout;fontSize=16;direction=south;flipH=1;flipV=1;fillColor=#FFFF33;fontColor=#ffffff;strokeColor=#000000;strokeWidth=1;" vertex="1" parent="1">
          <mxGeometry x="-490" y="641" width="39" height="40" as="geometry" />
        </mxCell>
        <mxCell id="lRJhLhai7MYSxHj7oOno-203" style="shape=tableRow;horizontal=0;startSize=0;swimlaneHead=0;swimlaneBody=0;strokeColor=#000000;top=0;left=0;bottom=0;right=0;collapsible=0;dropTarget=0;fillColor=none;points=[[0,0.5],[1,0.5]];portConstraint=eastwest;fontSize=16;" vertex="1" parent="lRJhLhai7MYSxHj7oOno-202">
          <mxGeometry width="39" height="40" as="geometry" />
        </mxCell>
        <mxCell id="lRJhLhai7MYSxHj7oOno-204" style="shape=partialRectangle;html=1;whiteSpace=wrap;connectable=0;strokeColor=#000000;overflow=hidden;fillColor=none;top=0;left=0;bottom=0;right=0;pointerEvents=1;fontSize=16;" vertex="1" parent="lRJhLhai7MYSxHj7oOno-203">
          <mxGeometry width="39" height="40" as="geometry">
            <mxRectangle width="39" height="40" as="alternateBounds" />
          </mxGeometry>
        </mxCell>
        <mxCell id="lRJhLhai7MYSxHj7oOno-205" value="" style="endArrow=classic;html=1;rounded=0;" edge="1" parent="1">
          <mxGeometry width="50" height="50" relative="1" as="geometry">
            <mxPoint x="-590" y="612" as="sourcePoint" />
            <mxPoint x="-494" y="612" as="targetPoint" />
          </mxGeometry>
        </mxCell>
        <mxCell id="lRJhLhai7MYSxHj7oOno-206" value="" style="endArrow=classic;html=1;rounded=0;" edge="1" parent="1">
          <mxGeometry width="50" height="50" relative="1" as="geometry">
            <mxPoint x="-523" y="826" as="sourcePoint" />
            <mxPoint x="-474" y="690" as="targetPoint" />
          </mxGeometry>
        </mxCell>
        <mxCell id="lRJhLhai7MYSxHj7oOno-208" value="&lt;b&gt;&lt;font style=&quot;font-size: 19px;&quot;&gt;d = 5&lt;/font&gt;&lt;/b&gt;" style="text;html=1;align=center;verticalAlign=middle;whiteSpace=wrap;rounded=0;" vertex="1" parent="1">
          <mxGeometry x="-1129" y="169" width="60" height="30" as="geometry" />
        </mxCell>
        <mxCell id="lRJhLhai7MYSxHj7oOno-209" value="" style="shape=table;startSize=0;container=1;collapsible=0;childLayout=tableLayout;fontSize=16;direction=south;flipH=1;flipV=1;fillColor=#FF3399;fontColor=#ffffff;strokeColor=#000000;strokeWidth=1;" vertex="1" parent="1">
          <mxGeometry x="-360" y="192" width="39" height="40" as="geometry" />
        </mxCell>
        <mxCell id="lRJhLhai7MYSxHj7oOno-210" style="shape=tableRow;horizontal=0;startSize=0;swimlaneHead=0;swimlaneBody=0;strokeColor=#000000;top=0;left=0;bottom=0;right=0;collapsible=0;dropTarget=0;fillColor=none;points=[[0,0.5],[1,0.5]];portConstraint=eastwest;fontSize=16;" vertex="1" parent="lRJhLhai7MYSxHj7oOno-209">
          <mxGeometry width="39" height="40" as="geometry" />
        </mxCell>
        <mxCell id="lRJhLhai7MYSxHj7oOno-211" style="shape=partialRectangle;html=1;whiteSpace=wrap;connectable=0;strokeColor=#000000;overflow=hidden;fillColor=none;top=0;left=0;bottom=0;right=0;pointerEvents=1;fontSize=16;" vertex="1" parent="lRJhLhai7MYSxHj7oOno-210">
          <mxGeometry width="39" height="40" as="geometry">
            <mxRectangle width="39" height="40" as="alternateBounds" />
          </mxGeometry>
        </mxCell>
        <mxCell id="lRJhLhai7MYSxHj7oOno-212" value="" style="shape=table;startSize=0;container=1;collapsible=0;childLayout=tableLayout;fontSize=16;direction=south;flipH=1;flipV=1;fillColor=#FF33FF;fontColor=#ffffff;strokeColor=#000000;strokeWidth=1;" vertex="1" parent="1">
          <mxGeometry x="-360" y="232" width="39" height="40" as="geometry" />
        </mxCell>
        <mxCell id="lRJhLhai7MYSxHj7oOno-213" style="shape=tableRow;horizontal=0;startSize=0;swimlaneHead=0;swimlaneBody=0;strokeColor=#000000;top=0;left=0;bottom=0;right=0;collapsible=0;dropTarget=0;fillColor=none;points=[[0,0.5],[1,0.5]];portConstraint=eastwest;fontSize=16;" vertex="1" parent="lRJhLhai7MYSxHj7oOno-212">
          <mxGeometry width="39" height="40" as="geometry" />
        </mxCell>
        <mxCell id="lRJhLhai7MYSxHj7oOno-214" style="shape=partialRectangle;html=1;whiteSpace=wrap;connectable=0;strokeColor=#000000;overflow=hidden;fillColor=none;top=0;left=0;bottom=0;right=0;pointerEvents=1;fontSize=16;" vertex="1" parent="lRJhLhai7MYSxHj7oOno-213">
          <mxGeometry width="39" height="40" as="geometry">
            <mxRectangle width="39" height="40" as="alternateBounds" />
          </mxGeometry>
        </mxCell>
        <mxCell id="lRJhLhai7MYSxHj7oOno-215" value="" style="endArrow=classic;html=1;rounded=0;" edge="1" parent="1">
          <mxGeometry width="50" height="50" relative="1" as="geometry">
            <mxPoint x="-470" as="sourcePoint" />
            <mxPoint x="-370" y="200" as="targetPoint" />
          </mxGeometry>
        </mxCell>
        <mxCell id="lRJhLhai7MYSxHj7oOno-216" value="" style="shape=table;startSize=0;container=1;collapsible=0;childLayout=tableLayout;fontSize=16;direction=south;flipH=1;flipV=1;fillColor=#3399FF;fontColor=#ffffff;strokeColor=#000000;strokeWidth=1;" vertex="1" parent="1">
          <mxGeometry x="-360" y="272" width="39" height="40" as="geometry" />
        </mxCell>
        <mxCell id="lRJhLhai7MYSxHj7oOno-217" style="shape=tableRow;horizontal=0;startSize=0;swimlaneHead=0;swimlaneBody=0;strokeColor=#000000;top=0;left=0;bottom=0;right=0;collapsible=0;dropTarget=0;fillColor=none;points=[[0,0.5],[1,0.5]];portConstraint=eastwest;fontSize=16;" vertex="1" parent="lRJhLhai7MYSxHj7oOno-216">
          <mxGeometry width="39" height="40" as="geometry" />
        </mxCell>
        <mxCell id="lRJhLhai7MYSxHj7oOno-218" style="shape=partialRectangle;html=1;whiteSpace=wrap;connectable=0;strokeColor=#000000;overflow=hidden;fillColor=none;top=0;left=0;bottom=0;right=0;pointerEvents=1;fontSize=16;" vertex="1" parent="lRJhLhai7MYSxHj7oOno-217">
          <mxGeometry width="39" height="40" as="geometry">
            <mxRectangle width="39" height="40" as="alternateBounds" />
          </mxGeometry>
        </mxCell>
        <mxCell id="lRJhLhai7MYSxHj7oOno-219" value="" style="shape=table;startSize=0;container=1;collapsible=0;childLayout=tableLayout;fontSize=16;direction=south;flipH=1;flipV=1;fillColor=#00FFFF;fontColor=#ffffff;strokeColor=#000000;strokeWidth=1;" vertex="1" parent="1">
          <mxGeometry x="-360" y="312" width="39" height="40" as="geometry" />
        </mxCell>
        <mxCell id="lRJhLhai7MYSxHj7oOno-220" style="shape=tableRow;horizontal=0;startSize=0;swimlaneHead=0;swimlaneBody=0;strokeColor=#000000;top=0;left=0;bottom=0;right=0;collapsible=0;dropTarget=0;fillColor=none;points=[[0,0.5],[1,0.5]];portConstraint=eastwest;fontSize=16;" vertex="1" parent="lRJhLhai7MYSxHj7oOno-219">
          <mxGeometry width="39" height="40" as="geometry" />
        </mxCell>
        <mxCell id="lRJhLhai7MYSxHj7oOno-221" style="shape=partialRectangle;html=1;whiteSpace=wrap;connectable=0;strokeColor=#000000;overflow=hidden;fillColor=none;top=0;left=0;bottom=0;right=0;pointerEvents=1;fontSize=16;" vertex="1" parent="lRJhLhai7MYSxHj7oOno-220">
          <mxGeometry width="39" height="40" as="geometry">
            <mxRectangle width="39" height="40" as="alternateBounds" />
          </mxGeometry>
        </mxCell>
        <mxCell id="lRJhLhai7MYSxHj7oOno-222" value="" style="shape=table;startSize=0;container=1;collapsible=0;childLayout=tableLayout;fontSize=16;direction=south;flipH=1;flipV=1;fillColor=#33FF33;fontColor=#ffffff;strokeColor=#000000;strokeWidth=1;" vertex="1" parent="1">
          <mxGeometry x="-360" y="352" width="39" height="40" as="geometry" />
        </mxCell>
        <mxCell id="lRJhLhai7MYSxHj7oOno-223" style="shape=tableRow;horizontal=0;startSize=0;swimlaneHead=0;swimlaneBody=0;strokeColor=#000000;top=0;left=0;bottom=0;right=0;collapsible=0;dropTarget=0;fillColor=none;points=[[0,0.5],[1,0.5]];portConstraint=eastwest;fontSize=16;" vertex="1" parent="lRJhLhai7MYSxHj7oOno-222">
          <mxGeometry width="39" height="40" as="geometry" />
        </mxCell>
        <mxCell id="lRJhLhai7MYSxHj7oOno-224" style="shape=partialRectangle;html=1;whiteSpace=wrap;connectable=0;strokeColor=#000000;overflow=hidden;fillColor=none;top=0;left=0;bottom=0;right=0;pointerEvents=1;fontSize=16;" vertex="1" parent="lRJhLhai7MYSxHj7oOno-223">
          <mxGeometry width="39" height="40" as="geometry">
            <mxRectangle width="39" height="40" as="alternateBounds" />
          </mxGeometry>
        </mxCell>
        <mxCell id="lRJhLhai7MYSxHj7oOno-225" value="" style="shape=table;startSize=0;container=1;collapsible=0;childLayout=tableLayout;fontSize=16;direction=south;flipH=1;flipV=1;fillColor=#FFFF33;fontColor=#ffffff;strokeColor=#000000;strokeWidth=1;" vertex="1" parent="1">
          <mxGeometry x="-360" y="394" width="39" height="40" as="geometry" />
        </mxCell>
        <mxCell id="lRJhLhai7MYSxHj7oOno-226" style="shape=tableRow;horizontal=0;startSize=0;swimlaneHead=0;swimlaneBody=0;strokeColor=#000000;top=0;left=0;bottom=0;right=0;collapsible=0;dropTarget=0;fillColor=none;points=[[0,0.5],[1,0.5]];portConstraint=eastwest;fontSize=16;" vertex="1" parent="lRJhLhai7MYSxHj7oOno-225">
          <mxGeometry width="39" height="40" as="geometry" />
        </mxCell>
        <mxCell id="lRJhLhai7MYSxHj7oOno-227" style="shape=partialRectangle;html=1;whiteSpace=wrap;connectable=0;strokeColor=#000000;overflow=hidden;fillColor=none;top=0;left=0;bottom=0;right=0;pointerEvents=1;fontSize=16;" vertex="1" parent="lRJhLhai7MYSxHj7oOno-226">
          <mxGeometry width="39" height="40" as="geometry">
            <mxRectangle width="39" height="40" as="alternateBounds" />
          </mxGeometry>
        </mxCell>
        <mxCell id="lRJhLhai7MYSxHj7oOno-229" value="" style="endArrow=classic;html=1;rounded=0;" edge="1" parent="1">
          <mxGeometry width="50" height="50" relative="1" as="geometry">
            <mxPoint x="-460" y="310" as="sourcePoint" />
            <mxPoint x="-370" y="310" as="targetPoint" />
          </mxGeometry>
        </mxCell>
        <mxCell id="lRJhLhai7MYSxHj7oOno-230" value="" style="endArrow=classic;html=1;rounded=0;" edge="1" parent="1">
          <mxGeometry width="50" height="50" relative="1" as="geometry">
            <mxPoint x="-440" y="640" as="sourcePoint" />
            <mxPoint x="-360" y="440" as="targetPoint" />
          </mxGeometry>
        </mxCell>
        <mxCell id="lRJhLhai7MYSxHj7oOno-231" value="" style="endArrow=none;html=1;rounded=0;" edge="1" parent="1">
          <mxGeometry width="50" height="50" relative="1" as="geometry">
            <mxPoint x="-310" y="207" as="sourcePoint" />
            <mxPoint x="-190" y="250" as="targetPoint" />
          </mxGeometry>
        </mxCell>
        <mxCell id="lRJhLhai7MYSxHj7oOno-232" value="" style="endArrow=none;html=1;rounded=0;" edge="1" parent="1">
          <mxGeometry width="50" height="50" relative="1" as="geometry">
            <mxPoint x="-310" y="422" as="sourcePoint" />
            <mxPoint x="-190" y="340" as="targetPoint" />
          </mxGeometry>
        </mxCell>
        <mxCell id="lRJhLhai7MYSxHj7oOno-233" value="" style="shape=table;startSize=0;container=1;collapsible=0;childLayout=tableLayout;fontSize=16;direction=south;flipH=1;flipV=1;fillColor=#000099;fontColor=#ffffff;strokeColor=#000000;strokeWidth=1;" vertex="1" parent="1">
          <mxGeometry x="-182" y="254" width="39" height="40" as="geometry" />
        </mxCell>
        <mxCell id="lRJhLhai7MYSxHj7oOno-234" style="shape=tableRow;horizontal=0;startSize=0;swimlaneHead=0;swimlaneBody=0;strokeColor=#000000;top=0;left=0;bottom=0;right=0;collapsible=0;dropTarget=0;fillColor=none;points=[[0,0.5],[1,0.5]];portConstraint=eastwest;fontSize=16;" vertex="1" parent="lRJhLhai7MYSxHj7oOno-233">
          <mxGeometry width="39" height="40" as="geometry" />
        </mxCell>
        <mxCell id="lRJhLhai7MYSxHj7oOno-235" style="shape=partialRectangle;html=1;whiteSpace=wrap;connectable=0;strokeColor=#000000;overflow=hidden;fillColor=none;top=0;left=0;bottom=0;right=0;pointerEvents=1;fontSize=16;" vertex="1" parent="lRJhLhai7MYSxHj7oOno-234">
          <mxGeometry width="39" height="40" as="geometry">
            <mxRectangle width="39" height="40" as="alternateBounds" />
          </mxGeometry>
        </mxCell>
        <mxCell id="lRJhLhai7MYSxHj7oOno-236" value="" style="shape=table;startSize=0;container=1;collapsible=0;childLayout=tableLayout;fontSize=16;direction=south;flipH=1;flipV=1;fillColor=#FF0000;fontColor=#ffffff;strokeColor=#000000;strokeWidth=1;" vertex="1" parent="1">
          <mxGeometry x="-182" y="294" width="39" height="40" as="geometry" />
        </mxCell>
        <mxCell id="lRJhLhai7MYSxHj7oOno-237" style="shape=tableRow;horizontal=0;startSize=0;swimlaneHead=0;swimlaneBody=0;strokeColor=#000000;top=0;left=0;bottom=0;right=0;collapsible=0;dropTarget=0;fillColor=none;points=[[0,0.5],[1,0.5]];portConstraint=eastwest;fontSize=16;" vertex="1" parent="lRJhLhai7MYSxHj7oOno-236">
          <mxGeometry width="39" height="40" as="geometry" />
        </mxCell>
        <mxCell id="lRJhLhai7MYSxHj7oOno-238" style="shape=partialRectangle;html=1;whiteSpace=wrap;connectable=0;strokeColor=#000000;overflow=hidden;fillColor=none;top=0;left=0;bottom=0;right=0;pointerEvents=1;fontSize=16;" vertex="1" parent="lRJhLhai7MYSxHj7oOno-237">
          <mxGeometry width="39" height="40" as="geometry">
            <mxRectangle width="39" height="40" as="alternateBounds" />
          </mxGeometry>
        </mxCell>
        <mxCell id="lRJhLhai7MYSxHj7oOno-239" value="&lt;b&gt;&lt;font style=&quot;font-size: 18px;&quot;&gt;Input Matrix&lt;/font&gt;&lt;/b&gt;&lt;div&gt;&lt;b&gt;&lt;font style=&quot;font-size: 18px;&quot;&gt;7×5&lt;/font&gt;&lt;/b&gt;&lt;/div&gt;" style="rounded=0;whiteSpace=wrap;html=1;" vertex="1" parent="1">
          <mxGeometry x="-1169" y="-200" width="149" height="70" as="geometry" />
        </mxCell>
        <mxCell id="lRJhLhai7MYSxHj7oOno-240" value="&lt;b&gt;&lt;font style=&quot;font-size: 23px;&quot;&gt;3 region sizes: (2,3,4)&lt;/font&gt;&lt;/b&gt;&lt;div&gt;&lt;b&gt;&lt;font style=&quot;font-size: 23px;&quot;&gt;2 filters for each region size&lt;/font&gt;&lt;/b&gt;&lt;/div&gt;&lt;div&gt;&lt;b&gt;&lt;font style=&quot;font-size: 23px;&quot;&gt;totally 6 filters&lt;/font&gt;&lt;/b&gt;&lt;/div&gt;" style="rounded=0;whiteSpace=wrap;html=1;" vertex="1" parent="1">
          <mxGeometry x="-1000" y="-240" width="310" height="110" as="geometry" />
        </mxCell>
        <mxCell id="lRJhLhai7MYSxHj7oOno-241" value="" style="endArrow=classic;html=1;rounded=0;exitX=0.5;exitY=0;exitDx=0;exitDy=0;" edge="1" parent="1" source="lRJhLhai7MYSxHj7oOno-239">
          <mxGeometry width="50" height="50" relative="1" as="geometry">
            <mxPoint x="-340" y="40" as="sourcePoint" />
            <mxPoint x="-1094" y="-280" as="targetPoint" />
          </mxGeometry>
        </mxCell>
        <mxCell id="lRJhLhai7MYSxHj7oOno-242" value="" style="endArrow=none;html=1;rounded=0;endFill=0;" edge="1" parent="1">
          <mxGeometry width="50" height="50" relative="1" as="geometry">
            <mxPoint x="-1094" y="-276" as="sourcePoint" />
            <mxPoint x="-880" y="-280" as="targetPoint" />
            <Array as="points">
              <mxPoint x="-1094" y="-320" />
              <mxPoint x="-880" y="-320" />
            </Array>
          </mxGeometry>
        </mxCell>
        <mxCell id="lRJhLhai7MYSxHj7oOno-243" value="" style="endArrow=classic;html=1;rounded=0;exitX=0.377;exitY=-0.002;exitDx=0;exitDy=0;exitPerimeter=0;" edge="1" parent="1">
          <mxGeometry width="50" height="50" relative="1" as="geometry">
            <mxPoint x="-880.1300000000001" y="-240.2199999999998" as="sourcePoint" />
            <mxPoint x="-880" y="-300" as="targetPoint" />
          </mxGeometry>
        </mxCell>
        <mxCell id="lRJhLhai7MYSxHj7oOno-244" value="&lt;b&gt;&lt;font style=&quot;font-size: 18px;&quot;&gt;convolution&lt;/font&gt;&lt;/b&gt;" style="text;html=1;align=center;verticalAlign=middle;whiteSpace=wrap;rounded=0;" vertex="1" parent="1">
          <mxGeometry x="-1041" y="-347" width="90" height="30" as="geometry" />
        </mxCell>
        <mxCell id="lRJhLhai7MYSxHj7oOno-246" value="" style="endArrow=classic;html=1;rounded=0;exitX=0.41;exitY=0.039;exitDx=0;exitDy=0;exitPerimeter=0;" edge="1" parent="1" source="lRJhLhai7MYSxHj7oOno-244" target="lRJhLhai7MYSxHj7oOno-250">
          <mxGeometry width="50" height="50" relative="1" as="geometry">
            <mxPoint x="-490" y="-180" as="sourcePoint" />
            <mxPoint x="-820" y="-350" as="targetPoint" />
            <Array as="points">
              <mxPoint x="-1004" y="-420" />
              <mxPoint x="-820" y="-420" />
              <mxPoint x="-595" y="-420" />
            </Array>
          </mxGeometry>
        </mxCell>
        <mxCell id="lRJhLhai7MYSxHj7oOno-248" value="&lt;b&gt;&lt;font style=&quot;font-size: 18px;&quot;&gt;activation function&lt;/font&gt;&lt;/b&gt;" style="text;html=1;align=center;verticalAlign=middle;whiteSpace=wrap;rounded=0;" vertex="1" parent="1">
          <mxGeometry x="-925" y="-420" width="210" height="30" as="geometry" />
        </mxCell>
        <mxCell id="lRJhLhai7MYSxHj7oOno-249" value="" style="endArrow=classic;html=1;rounded=0;" edge="1" parent="1">
          <mxGeometry width="50" height="50" relative="1" as="geometry">
            <mxPoint x="-1004" y="-342" as="sourcePoint" />
            <mxPoint x="-1004" y="-392" as="targetPoint" />
          </mxGeometry>
        </mxCell>
        <mxCell id="lRJhLhai7MYSxHj7oOno-250" value="&lt;font style=&quot;font-size: 20px;&quot;&gt;&lt;b style=&quot;&quot;&gt;&lt;font style=&quot;font-size: 20px;&quot;&gt;2 feature maps for&amp;nbsp;&lt;/font&gt;&lt;/b&gt;&lt;b style=&quot;background-color: initial;&quot;&gt;each&amp;nbsp;&lt;/b&gt;&lt;/font&gt;&lt;div style=&quot;font-size: 20px;&quot;&gt;&lt;b style=&quot;background-color: initial;&quot;&gt;&lt;font style=&quot;font-size: 20px;&quot;&gt;region size&lt;/font&gt;&lt;/b&gt;&lt;/div&gt;" style="rounded=0;whiteSpace=wrap;html=1;" vertex="1" parent="1">
          <mxGeometry x="-680" y="-240" width="170" height="110" as="geometry" />
        </mxCell>
        <mxCell id="lRJhLhai7MYSxHj7oOno-251" value="" style="endArrow=classic;html=1;rounded=0;exitX=0.855;exitY=0.013;exitDx=0;exitDy=0;exitPerimeter=0;" edge="1" parent="1">
          <mxGeometry width="50" height="50" relative="1" as="geometry">
            <mxPoint x="-560.2999999999997" y="-240.56999999999994" as="sourcePoint" />
            <mxPoint x="-560" y="-320" as="targetPoint" />
          </mxGeometry>
        </mxCell>
        <mxCell id="lRJhLhai7MYSxHj7oOno-252" value="" style="endArrow=classic;html=1;rounded=0;" edge="1" parent="1">
          <mxGeometry width="50" height="50" relative="1" as="geometry">
            <mxPoint x="-560" y="-310" as="sourcePoint" />
            <mxPoint x="-430" y="-240" as="targetPoint" />
            <Array as="points">
              <mxPoint x="-560" y="-360" />
              <mxPoint x="-430" y="-360" />
              <mxPoint x="-430" y="-300" />
            </Array>
          </mxGeometry>
        </mxCell>
        <mxCell id="lRJhLhai7MYSxHj7oOno-253" value="&lt;b&gt;&lt;font style=&quot;font-size: 18px;&quot;&gt;1-max pooling&lt;/font&gt;&lt;/b&gt;" style="text;html=1;align=center;verticalAlign=middle;whiteSpace=wrap;rounded=0;" vertex="1" parent="1">
          <mxGeometry x="-569" y="-390" width="141" height="30" as="geometry" />
        </mxCell>
        <mxCell id="lRJhLhai7MYSxHj7oOno-255" value="&lt;font size=&quot;1&quot; style=&quot;&quot;&gt;&lt;b style=&quot;font-size: 18px;&quot;&gt;6 univariate vectors concatenated together to form a single feature vector&lt;/b&gt;&lt;/font&gt;" style="rounded=0;whiteSpace=wrap;html=1;" vertex="1" parent="1">
          <mxGeometry x="-471" y="-240" width="201" height="110" as="geometry" />
        </mxCell>
        <mxCell id="lRJhLhai7MYSxHj7oOno-256" value="" style="endArrow=classic;html=1;rounded=0;exitX=0.54;exitY=0.021;exitDx=0;exitDy=0;exitPerimeter=0;" edge="1" parent="1">
          <mxGeometry width="50" height="50" relative="1" as="geometry">
            <mxPoint x="-360.46000000000004" y="-239.68999999999983" as="sourcePoint" />
            <mxPoint x="-360" y="-332" as="targetPoint" />
          </mxGeometry>
        </mxCell>
        <mxCell id="lRJhLhai7MYSxHj7oOno-257" value="" style="endArrow=classic;html=1;rounded=0;" edge="1" parent="1" target="lRJhLhai7MYSxHj7oOno-258">
          <mxGeometry width="50" height="50" relative="1" as="geometry">
            <mxPoint x="-360" y="-310" as="sourcePoint" />
            <mxPoint x="-180" y="-280" as="targetPoint" />
            <Array as="points">
              <mxPoint x="-360" y="-350" />
              <mxPoint x="-160" y="-350" />
            </Array>
          </mxGeometry>
        </mxCell>
        <mxCell id="lRJhLhai7MYSxHj7oOno-258" value="&lt;b&gt;&lt;font style=&quot;font-size: 21px;&quot;&gt;2 classes&lt;/font&gt;&lt;/b&gt;" style="rounded=0;whiteSpace=wrap;html=1;" vertex="1" parent="1">
          <mxGeometry x="-222.5" y="-240" width="120" height="60" as="geometry" />
        </mxCell>
        <mxCell id="lRJhLhai7MYSxHj7oOno-260" value="&lt;font style=&quot;font-size: 22px;&quot;&gt;&lt;b&gt;Softmax function&lt;/b&gt;&lt;/font&gt;&lt;div style=&quot;font-size: 22px;&quot;&gt;&lt;b&gt;regularization&lt;/b&gt;&lt;/div&gt;&lt;div style=&quot;font-size: 22px;&quot;&gt;&lt;b&gt;in this layer&lt;/b&gt;&lt;/div&gt;" style="text;html=1;align=center;verticalAlign=middle;whiteSpace=wrap;rounded=0;" vertex="1" parent="1">
          <mxGeometry x="-386" y="-335" width="250" height="63" as="geometry" />
        </mxCell>
      </root>
    </mxGraphModel>
  </diagram>
</mxfile>
